<?xml version="1.0" encoding="UTF-8" standalone="no"?>
<!-- Created with Inkscape (http://www.inkscape.org/) -->
<svg id="svg2" xmlns:rdf="http://www.w3.org/1999/02/22-rdf-syntax-ns#" xmlns="http://www.w3.org/2000/svg" height="297mm" width="210mm" version="1.1" xmlns:cc="http://creativecommons.org/ns#" xmlns:dc="http://purl.org/dc/elements/1.1/" viewBox="0 0 744.09448819 1052.3622047">
 <metadata id="metadata7">
  <rdf:RDF>
   <cc:Work rdf:about="">
    <dc:format>image/svg+xml</dc:format>
    <dc:type rdf:resource="http://purl.org/dc/dcmitype/StillImage"/>
    <dc:title/>
   </cc:Work>
  </rdf:RDF>
 </metadata>
 <g id="layer1">
  <path id="path3431" d="m1.3393 136.38v-134.16h368.66 368.66v134.16 134.16h-368.66-368.66v-134.16z" fill="#f3f5f8"/>
  <path id="path3429" d="m651.85 234.24c-11.161-1.181-31.962-2.4994-46.224-2.9298-56.69-1.7106-104.47-3.8059-142.54-6.2505-32.037-2.0575-40.627-1.9962-43.405 0.30949-2.4474 2.0312-4.2987 2.1815-6.3098 0.51245-3.0579-2.5378-22.632-2.9673-116.27-2.5508-32.648 0.14521-62.145 1.0629-65.55 2.0394-3.4047 0.97646-11.699 0.85522-18.431-0.26942-6.7325-1.1246-51.49-2.1192-99.461-2.2101-63.466-0.12027-87.489-0.87071-88.207-2.7555-0.54265-1.4246-0.14754-8.6782 0.87801-16.119 1.0256-7.4409 2.5687-44.696 3.4293-82.79l1.565-69.261-5.979-2.273c-3.288-1.25-6.095-3.566-6.238-5.147-0.84-9.312 1.016-32.576 2.769-34.716 3.838-4.6847 18.678-5.2956 69.402-2.8577 43.899 2.1099 51.074 2.9705 54.961 6.5921 3.989 3.7163 5.007 3.8143 9.442 0.90833 2.734-1.7914 5.3977-2.8303 5.9194-2.3086 0.52165 0.52165 10.767 1.5369 22.767 2.256 12 0.71916 24.437 2.303 27.637 3.5196 6.8643 2.6098 26.078 2.1777 26.078-0.58647 0-2.1836 13.643-2.3762 112.74-1.5919 43.16 0.34157 71.579 1.427 72.436 2.7665 0.88584 1.3857 1.9821 1.2775 2.9516-0.29115 3.3353-5.3966 74.063-0.66804 89.047 5.9534 5.7976 2.5619 8.7114 2.7979 11.677 0.94591 2.9326-1.8315 4.2395-1.762 5.0681 0.2694 0.814 1.9956 1.774 1.8208 3.543-0.64502 2.0416-2.8458 2.7451-2.8877 4.4358-0.26413 1.4599 2.2654 5.4388 2.8337 14.55 2.0781 6.8974-0.57199 12.021-0.19946 11.386 0.82783-0.63491 1.0273 0.52249 1.8678 2.572 1.8678s4.257-2.0293 4.9057-4.5096c1.2796-4.8933 7.4179-6.2928 7.4176-1.6911-0.00018 2.9182 12.296 3.6757 15.045 0.92677 2.7504-2.7504 5.7442-1.525 4.4587 1.825-1.0508 2.7384 0.77133 3.1187 10.469 2.1851 6.4577-0.62169 13.263-1.1841 15.124-1.2498 1.8602-0.06573 4.9042-0.65062 6.7644-1.2998 2.6703-0.93183 2.433-1.54-1.1274-2.8895-3.1403-1.1902-1.6446-1.643 4.926-1.4911 5.8359 0.13489 8.4166 0.95172 6.7644 2.1411-1.5355 1.1054 0.68416 1.2948 5.2206 0.44543 12.099-2.2653 41.966-4.4303 61.906-4.4876 20.657-0.05934 20.882 0.19725 21.297 24.243 0.20857 12.081-0.20384 13.184-5.7117 15.278l-5.9364 2.257 1.7675 71.532c2.0275 82.054 2.2156 85.981 4.3627 91.094 4.3189 10.284-30.569 15.29-74.303 10.662zm-592.05-74.31c-0.05461-18.047 0.61336-43.16 1.4844-55.806 0.871-12.646 0.96568-22.993 0.2104-22.993s-4.8395 1.6529-9.076 3.6732l-7.7027 3.6732-1.5898 47.624c-1.7268 51.728-0.42846 61.53 7.8633 59.361 2.5451-0.66556 4.4843-0.0462 4.504 1.4386 0.01939 1.4581 0.99794 1.1166 2.2202-0.7748 1.2021-1.8602 2.141-18.148 2.0864-36.195zm284.27-20.55c0-26.25-0.52156-47.205-1.159-46.568-0.63748 0.63747-1.7917 22.114-2.565 47.727-1.0301 34.12-0.7203 46.568 1.159 46.568 1.836 0 2.565-13.565 2.565-47.727zm-20.623 11.65c-0.23741-18.602-1.2751-33.822-2.3059-33.822s-1.8743 15.22-1.8743 33.822c0 21.545 0.83705 33.822 2.3059 33.822 1.488 0 2.1528-11.996 1.8743-33.822zm380.11-41.91c1.1718-4.6687 0.18084-6.9935-4.8235-11.316-6.2194-5.3722-6.3076-5.3813-7.0432-0.72393-0.40967 2.594 0.85865 6.4883 2.8185 8.6539 1.9599 2.1656 3.5634 5.6932 3.5634 7.839 0 5.556 3.7335 2.525 5.4848-4.4528zm-382.74-13.92c-0.56435-2.1558-1.0056 0.13903-0.98061 5.0996 0.025 4.9606 0.48679 6.7244 1.0261 3.9196 0.53932-2.8048 0.51885-6.8634-0.0455-9.0192zm386.27-12.755c0-5.0378-3.718-8.0659-9.8242-8.0012l-7.0869 0.07502 5.3231 4.4346c4.7379 3.947 11.588 6.0111 11.588 3.4916zm-383.31-9.203c0-3.1004-1.0147-5.637-2.2548-5.637s-2.2548 2.5367-2.2548 5.637c0 3.1004 1.0147 5.637 2.2548 5.637s2.2548-2.5367 2.2548-5.637zm20.293 0c0-3.1004-1.0147-5.637-2.2548-5.637s-2.2548 2.5367-2.2548 5.637c0 3.1004 1.0147 5.637 2.2548 5.637s2.2548-2.5367 2.2548-5.637zm-288.5-2.313c9.8026-5.0691 8.5944-9.2657-2.3668-8.2204-7.7724 0.74122-9.0192 1.6066-9.0192 6.2603 0 6.2944 2.2539 6.6824 11.386 1.9601zm468.89-30.341v-9.0606h-25.93-25.93v7.735c0 9.1202 0.39019 9.2451 31.004 9.9238l20.857 0.46239v-9.0606zm86.348 1.3756c-0.25412-3.5612-0.79834-6.8112-1.2094-7.2222-0.41103-0.41104-16.438-0.90178-35.615-1.0905-34.21-0.33674-34.882-0.25062-35.61 4.5677-1.6972 11.233-0.75448 11.506 37.334 10.841l35.562-0.6212-0.46203-6.4748zm45.317 4.0356c0.75277-1.9616 1.3686-5.513 1.3686-7.8918 0-3.8518-1.7275-4.3252-15.784-4.3252h-15.784v7.8918 7.8918h14.415c11.065 0 14.733-0.82898 15.784-3.5666zm60.583 0.74812c0.58979-1.5502 0.22367-5.1015-0.81351-7.8918-1.617-4.35-3.5227-5.0733-13.366-5.0733-7.079 0-10.946-0.86438-10.086-2.2548 0.76645-1.2401 5.646-2.3261 10.843-2.4133 5.1974-0.08717 11.479-0.97643 13.959-1.9761 2.5689-1.0354 5.7225-0.84842 7.3281 0.43457 2.0245 1.6178 2.8185 1.211 2.8185-1.4437 0-3.1291-2.022-3.5268-13.183-2.5929-7.2505 0.60667-15.027 1.8107-17.281 2.6757-2.825 1.0841-3.5917 0.75307-2.4678-1.0654 1.1425-1.8486-1.1083-2.638-7.5219-2.638-9.344 0-12.315 3.4844-5.2064 6.107 5.9172 2.1832 6.9248 4.8495 5.0217 13.288l-1.7282 7.6628h15.305c10.169 0 15.665-0.94585 16.377-2.8185zm-427.9-8.401c0.81049-3.6902 0.83124-7.7488 0.046-9.0192-0.84614-1.3692-12.461-2.3098-28.522-2.3098h-27.095l0.68492 7.3281c0.37671 4.0305 1.7215 8.0736 2.9884 8.9847 1.2669 0.91112 13.131 1.6721 26.364 1.6911l24.06 0.03453 1.4736-6.7094zm-67.055-1.1824c1.3125-10.265-1.7122-11.205-38.819-12.061l-35.038-0.80876v7.9382c0 4.366 1.2683 8.4631 2.8185 9.1048 1.5502 0.64163 18.038 0.97985 36.641 0.7516 31.968-0.39225 33.854-0.66225 34.399-4.9246zm-88.358 0.87531c3.4802-5.631-10.614-8.7781-15.852-3.5397-2.1521 2.1521-10.16 2.8966-29.011 2.6972-14.321-0.15146-25.534 0.54018-24.918 1.537 1.7901 2.8965 67.969 2.2378 69.781-0.69453zm-81.86-1.335c-2.7733-0.53521-7.8466-0.54906-11.274-0.03078s-1.1584 0.95617 5.0423 0.9731c6.2007 0.01691 9.005-0.40712 6.2317-0.94232zm-1.0021-8.3488c3.6969-1.9117 10.611-2.852 17.405-2.3672 6.1996 0.44242 16.326-0.04036 22.504-1.0728 10.231-1.7101 9.1734-1.9419-11.88-2.6037-43.589-1.37-42.196-1.5042-42.998 4.1419-0.86287 6.0756 5.3675 6.8671 14.969 1.9018zm83.647-2.1552c-2.2268-1.9368-19.999-3.0904-18.845-1.2231 0.69355 1.1222 5.4289 2.0403 10.523 2.0403s8.8392-0.36773 8.3224-0.81717zm-24.192-2.9779c-1.6277-0.65135-3.5724-0.57124-4.3217 0.17801-0.74925 0.74925 0.5825 1.2822 2.9594 1.1843 2.6267-0.1082 3.161-0.64248 1.3623-1.3623zm115.18-8.8412c0.74925-0.74925 2.694-0.82936 4.3217-0.17801 1.7987 0.71979 1.2644 1.2541-1.3623 1.3623-2.3769 0.0979-3.7087-0.43502-2.9594-1.1843z" fill="#9e9aa0"/>
  <path id="path3427" d="m644.67 232.22c-16.602-2.3404-75.273-4.8494-127.01-5.4315-20.477-0.23039-38.408-1.1465-39.847-2.0359-4.3783-2.706-55.659-3.6521-58.775-1.0844-1.9561 1.6122-3.8099 1.5003-6.0584-0.36583-1.8782-1.5588-10.17-2.6584-19.73-2.6164-9.0693 0.0399-19.534-0.097-23.254-0.30427-3.7204-0.20722-11.077 0.42776-16.347 1.4111l-9.5829 1.7878v-65.588c0-42.222-0.80327-65.588-2.2548-65.588-1.855 0-3.7434 50.196-2.969 78.918 0.0836 3.1004 0.48721 15.784 0.89693 28.185l0.74492 22.548-8.4516 0.70553-8.4516 0.70553 0.08-42.419c0.044-23.331 0.0939-46.985 0.11101-52.566 0.018-5.5806-0.97491-11.669-2.2044-13.529-1.5089-2.283-2.2466 14.633-2.27 52.05l-0.0345 55.432-52.424-0.90406c-28.833-0.49724-56.483-1.0453-61.443-1.2179-4.9606-0.1726-15.615-0.0745-23.675 0.21804-8.0609 0.29252-17.193 0.42886-20.293 0.30299-3.1004-0.12586-26.877-0.13914-52.838-0.0295-25.96 0.10965-47.868-0.57847-48.684-1.5292-0.81578-0.95069-0.71163-21.007 0.23144-44.57s1.7966-54.679 1.8968-69.148l0.18209-26.307-8.7262 4.7798-8.7262 4.7798-1.4684 28.291c-1.9146 36.888-2.1714 98.456-0.42242 101.29 2.1473 3.4744-7.0145 5.3298-12.314 2.4938-3.0505-1.6326-4.2725-3.8482-3.3904-6.147 0.75861-1.9769 2.0115-39.713 2.7843-83.859l1.411-80.257-5.824-2.653c-5.6048-2.5537-5.7916-3.2612-4.972-18.83 0.46835-8.8971 1.4368-16.762 2.152-17.477 3.0446-3.0446 9.2495-2.1119 13.044 1.9608 4.94 5.3024 8.1037 5.5769 9.9137 0.86011 1.1899-3.1008 6.813-3.3562 46.716-2.1217 57.264 1.7716 53.96 1.4707 56.756 5.1692 2.0065 2.6543 2.8334 2.5854 5.3487-0.44536 2.4907-3.0011 6.511-3.3731 24.684-2.284 11.94 0.71556 26.782 2.558 32.983 4.0942 12.474 3.0906 21.168 3.1831 25.874 0.27521 3.4238-2.116 38.465-2.1578 45.094-0.05371 2.3038 0.73121 4.8414 0.27354 5.639-1.017 2.3174-3.7496 16.968-2.9312 16.968 0.94789 0 2.7265 5.1505 3.2845 29.876 3.2372 42.713-0.08186 117.15 2.5185 119.95 4.1902 1.3051 0.77984 1.0781-0.18102-0.50434-2.1352-2.4963-3.0828-1.7643-3.7619 5.5299-5.1303 6.3671-1.1945 9.0344-0.71939 10.992 1.9578 1.4217 1.9442 3.24 2.8798 4.0408 2.079 2.2983-2.2983 32.517-1.1711 37.306 1.3916 6.1999 3.3181 25.054 4.9424 25.054 2.1585 0-1.2596 0.83579-1.7735 1.8573-1.1422 1.0215 0.63133 8.7295 1.7657 17.129 2.5208 13.093 1.1771 15.713 0.79096 18.364-2.7059 2.028-2.6747 3.1173-3.0563 3.1643-1.1084 0.0467 1.9306 1.642 2.4721 4.5576 1.5467 2.5717-0.81623 6.6345 0.08111 9.5209 2.1029 4.8205 3.3764 4.4612 3.5399-8.4318 3.8388-7.4068 0.1717-20.823 0.06701-29.814-0.23265l-16.347-0.54484v9.2519 9.2519l17.475 0.30559c9.6111 0.16807 23.563 0.54272 31.004 0.83255 7.4409 0.28983 16.376 0.0591 19.857-0.51273 5.5687-0.91492 6.2452-1.893 5.637-8.1508-0.57502-5.9166-1.8274-7.3126-7.4555-8.3103-6.0465-1.0719-6.2858-1.4025-2.2548-3.1152 2.4803-1.0538 9.845-2.2396 16.366-2.6351 6.521-0.39551 13.044-1.4529 14.495-2.3497 3.9102-2.4166 42.679-1.8119 44.359 0.69194 0.79401 1.1836 3.3504 2.8574 5.681 3.7197 3.4837 1.2889 4.0231 3.1644 3.0331 10.546l-1.2042 8.9782h16.839 16.839l-0.70656-7.3281c-0.68643-7.1192-1.0601-7.3632-13.108-8.5585-6.8208-0.67672-10.879-1.8603-9.0192-2.6302 5.6787-2.3503 28.028-4.0114 30.656-2.2784 6.272 4.1353 5.8009 27.56-0.55419 27.56-1.7359 0-4.0385 2.3207-5.1168 5.157-2.405 6.3257 1.4374 154.14 4.1782 160.74 3.3832 8.1364-4.4099 10.515-36.946 11.276-16.182 0.37851-35.697-0.1964-43.367-1.2776zm53.246-65.97c0.0872-0.93011-0.85617-1.6911-2.0963-1.6911-1.2402 0-2.1835 2.7903-2.0963 6.2007 0.14048 5.4946 0.37915 5.6872 2.0963 1.6911 1.0658-2.4803 2.0092-5.2706 2.0963-6.2007zm6.9787-11.985c1.2094-3.1811 2.1912-16.625 2.1816-29.876l-0.0174-24.092-9.0019-5.1406-9.0019-5.1406 0.16032 10.778c0.33865 22.776 3.764 51.169 6.2739 52.006 1.4218 0.47393 2.5851 2.2991 2.5851 4.056 0 5.292 4.4688 3.5954 6.8202-2.5895zm-383.33-62.706c-1.5677-1.5677-2.2309 1.2608-2.0767 8.8581l0.22649 11.161 2.0767-8.8581c1.3574-5.79 1.279-9.6558-0.22649-11.161zm385.11-12.112c-0.61942-5.3834-1.8281-6.293-9.169-6.9005-10.397-0.86047-10.802 2.1364-1.1274 8.3322 9.6496 6.1798 11.148 5.9714 10.296-1.4317zm-382.9-5.073c0-3.7204-1.0147-6.7644-2.2548-6.7644s-2.2548 3.044-2.2548 6.7644 1.0147 6.7644 2.2548 6.7644 2.2548-3.044 2.2548-6.7644zm20.293-1.2605c0-3.0272-0.94629-5.5039-2.1028-5.5039-2.7577 0-5.3563 8.3258-3.5239 11.291 2.2731 3.678 5.6268 0.22897 5.6268-5.7867zm-281.85-8.931c0-2.3892-2.5604-3.3364-9.0192-3.3364-8.8144 0-9.0192 0.18027-9.0192 7.9376v7.9376l9.0192-4.6013c4.9606-2.5307 9.0192-6.1026 9.0192-7.9376zm596.16-21.88c0.76785-3.8392 1.0675-7.309 0.66596-7.7105-0.40158-0.40157-7.7649-1.0005-16.363-1.331l-15.633-0.60083-0.69288 8.3391-0.69288 8.3391 13.094 0.68008c17.058 0.88594 17.973 0.52617 19.621-7.716zm-132.76 4.9589c0.78515-1.2704 0.79313-5.1984 0.018-8.7288l-1.4098-6.419-24.124-1.1729c-26.897-1.3076-29.745-0.10926-28 11.78l1.0054 6.8503h25.541c15.001 0 26.13-0.95322 26.969-2.3098zm-303.71-13.75-0.73-7.615-36.69-0.62c-39.848-0.67314-40.985-0.31809-37.933 11.842l1.3992 5.5749 35.485 0.62081c19.517 0.34144 36.319-0.01127 37.34-0.78358 1.0204-0.77242 1.5278-4.8311 1.1274-9.0192zm67.599 2.2459 0.68325-8.1777-25.918-1.6195c-14.255-0.8907-26.992-0.95583-28.305-0.14474-1.3124 0.81109-2.3861 5.5047-2.3861 10.43v8.9556l27.621-0.6331 27.621-0.6331 0.68325-8.1777zm-155.14 0.28588c0-3.5986-1.5032-4.5096-7.4409-4.5096-4.0925 0-8.5751 1.1342-9.9613 2.5205-2.7005 2.7005-57.625 3.2116-68.807 0.64027-3.3897-0.7795-7.9557-0.62128-10.147 0.3516-7.2957 3.2396 9.94 4.9002 54.078 5.2101 40.873 0.28697 42.278 0.14704 42.278-4.2128zm-82.185-6.563c2.51-2.4051 63.797-4.8509 65.187-2.6015 0.51858 0.83908 4.6381 1.0942 9.1545 0.56695 19.498-2.2763 0.97786-4.4817-44.015-5.2412l-48.478-0.81834-0.72053 5.0733c-0.6407 4.5113 0.24604 5.0733 8.0046 5.0733 4.7988 0 9.689-0.92364 10.867-2.0525z" fill="#a48a68"/>
  <path id="path3425" d="m644.67 232.22c-16.602-2.3404-75.273-4.8494-127.01-5.4315-20.477-0.23039-38.408-1.1465-39.847-2.0359-4.3783-2.706-55.659-3.6521-58.775-1.0844-1.9561 1.6122-3.8099 1.5003-6.0584-0.36583-1.8782-1.5588-10.17-2.6584-19.73-2.6164-9.0693 0.0399-19.534-0.097-23.254-0.30427-3.7204-0.20722-11.135 0.43758-16.476 1.4329l-9.712 1.8096 0.26483-41.37c0.48304-75.465 0.0758-93.09-2.0995-90.863-2.3923 2.4486-4.0592 74.396-2.5049 108.12l1.0393 22.548-8.297 0.69561-8.2971 0.69562-0.26634-53.684c-0.14656-29.526-0.16393-58.942-0.039-65.369 0.12514-6.4269-0.80138-12.321-2.0588-13.098-1.5252-0.9427-2.2862 20.645-2.2862 64.862v66.275l-52.424-0.90406c-28.833-0.49724-56.483-1.0453-61.443-1.2179-4.9606-0.1726-15.615-0.0745-23.675 0.21804-8.0609 0.29252-17.193 0.42886-20.293 0.30299-3.1004-0.12586-26.877-0.13914-52.838-0.0295-25.96 0.10965-47.883-0.57847-48.717-1.5292-1.3598-1.5501 0.46543-73.535 3.0882-121.8 0.55601-10.231 0.57546-18.602 0.04322-18.602s-4.8645 1.988-9.6273 4.4178c-7.5028 3.8276-8.8438 5.7102-10.039 14.093-1.884 13.219-2.3604 117.93-0.5498 120.86 1.8854 3.0507-5.8129 5.4889-11.021 3.4905-3.7563-1.4414-3.9283-4.806-2.5685-50.221 1.2025-40.161 2.0266-102.35 1.5591-117.65-0.06025-1.9712-2.5706-4.7053-5.5785-6.0758-5.1675-2.3545-5.4227-3.3697-4.6305-18.42 0.46116-8.7606 1.3752-16.797 2.0312-17.858 1.9431-3.1441 11.45-1.6874 11.45 1.7544 0 4.3428 8.1499 5.19 12.454 1.2945 3.4506-3.1227 8.5318-3.1404 95.776-0.33239 2.4803 0.07983 5.5777 1.558 6.883 3.2848 2.0185 2.6702 2.786 2.6426 5.1321-0.18436 3.1958-3.8507 33.192-3.2587 54.502 1.0757 16.502 3.3564 27.853 3.7693 29.663 1.0789 1.5302-2.2746 37.94-2.5251 44.923-0.30902 2.174 0.69001 4.6054 0.19863 5.403-1.092 2.2149-3.5838 14.67-2.8281 16.13 0.97873 1.0407 2.712 7.1614 3.33 33.188 3.3509 45.781 0.03684 114.76 2.4225 117.51 4.0641 1.2887 0.76969 1.0483-0.19944-0.53417-2.1536-2.4963-3.0828-1.7643-3.7619 5.5299-5.1303 6.3671-1.1945 9.0344-0.71939 10.992 1.9578 1.4217 1.9442 3.24 2.8798 4.0408 2.079 2.2983-2.2983 32.517-1.1711 37.306 1.3916 5.6743 3.0368 25.054 4.993 25.054 2.529 0-1.0558 3.805-1.036 8.4555 0.04399 14.029 3.2578 25.667 2.5052 28.992-1.8748 2.0112-2.6494 3.0189-2.9699 3.0671-0.97546 0.0467 1.9306 1.642 2.4721 4.5576 1.5467 2.5717-0.81623 6.6345 0.08111 9.5209 2.1029 4.6766 3.2757 2.9303 3.5266-24.538 3.5266-31.821 0-32.898 0.41837-30.698 11.926 1.4909 7.7991 6.9849 8.7734 44.611 7.9115l29.312-0.67145 0.70111-8.4773c0.58665-7.0933-0.14949-8.8186-4.5096-10.567-5.7354-2.3005-4.2551-2.7172 11.7-3.2937 5.5806-0.20165 11.396-1.1402 12.922-2.0858 4.2456-2.6296 43.557-2.6955 45.307-0.07599 0.83791 1.2546 3.3682 2.9628 5.6229 3.7959 3.2565 1.2033 3.9519 3.4876 3.3822 11.11l-0.71719 9.5948 13.831 0.6645c15.899 0.76389 21.226-2.4721 19.44-11.811-1.0252-5.3627-1.979-5.7643-13.691-5.7643-17.788 0-12.105-4.2 6.7664-5.0008 8.2452-0.3499 15.489-0.12884 16.097 0.49123 1.1555 1.1782 2.147 13.455 1.7544 21.721-0.12988 2.7348-2.1099 5.3023-4.589 5.9506-2.9085 0.76059-4.8888 3.9563-5.947 9.5971-1.9445 10.365 3.1811 149.17 5.7487 155.68 3.213 8.1451-4.5774 10.516-37.046 11.276-16.182 0.37851-35.697-0.1964-43.367-1.2776zm59.175-57.618c0.84546-5.6379 0.95595-10.832 0.24553-11.542-0.71042-0.71042 0.18196-2.7654 1.9832-4.5665 4.3301-4.3301 4.7103-52.177 0.45632-57.435-3.2736-4.0458-13.164-10.907-15.722-10.907-2.1074 0-2.3374 37.949-0.31921 52.673 0.83448 6.0881 2.6097 10.461 4.2466 10.461 1.547 0 3.3236 1.9534 3.9479 4.3409 0.79635 3.0452 0.2018 3.9828-1.9918 3.141-2.4313-0.93296-3.111 1.4875-3.0553 10.879 0.0676 11.396 0.27198 11.824 3.6154 7.5694 3.4861-4.4363 3.5191-4.4271 2.0312 0.5637-0.86515 2.9018-0.54154 5.0733 0.75604 5.0733 1.2477 0 2.9603-4.6128 3.8058-10.251zm3.2487-95.725c0-6.3886-0.50106-6.7644-9.0192-6.7644-10.514 0-11.334 2.3611-3.0781 8.8556 8.4036 6.6103 12.097 5.9718 12.097-2.0912zm-382.36-3.482c1.5207-6.0589 0.19576-10.043-3.3398-10.043-1.167 0-2.1217 3.5513-2.1217 7.8918 0 9.1778 3.3653 10.503 5.4616 2.1511zm19.341-2.339c0-5.4611-0.91349-7.7756-2.8185-7.1413-5.298 1.764-4.8622 15.221 0.49294 15.221 1.2791 0 2.3256-3.6359 2.3256-8.0797zm-284.74-3.601c5.8663-4.8686 3.2028-8.6127-6.1268-8.6127-8.7922 0-9.0192 0.19721-9.0192 7.836 0 7.5938 0.1894 7.764 6.1268 5.5066 3.3698-1.2812 7.4284-3.4096 9.0192-4.7299zm597.18-20.601c0.62657-1.6328 1.3557-5.9452 1.6203-9.5829l0.48111-6.6141h-16.911-16.911l0.48111 6.6141c0.2646 3.6378 0.99376 7.9501 1.6203 9.5829 1.5815 4.1214 28.038 4.1214 29.619 0zm-130.93-8.3052v-7.8918l-25.557-1.9514c-28.994-2.2138-31.035-1.441-28.725 10.873l1.5254 8.1308 26.379-0.63426 26.379-0.63426v-7.8918zm-303.71-6.0892 0.6879-9.4714-35.637-0.67519c-19.601-0.37136-36.958 0.25304-38.571 1.3876-1.6318 1.1474-2.6324 5.1498-2.2548 9.0192l0.67884 6.9565 29.312 1.2811c47.695 2.0845 44.979 2.5886 45.784-8.4977zm68.084 1.8937v-8.7051l-11.838-1.4219c-6.5108-0.78203-19.194-1.4307-28.185-1.4415l-16.347-0.0196v10.147 10.147h28.185 28.185v-8.7051zm-155.99 0.24963c0.6249-4.4-0.28779-5.0733-6.8772-5.0733-4.1787 0-8.5649 0.96723-9.7471 2.1494-2.4694 2.4694-56.596 3.2872-69.117 1.0443-8.7233-1.5626-17.146 0.23554-14.333 3.06 0.89725 0.90091 20.575 2.2114 43.728 2.9122 57.822 1.7501 55.492 1.9194 56.346-4.0926zm-81.775-7.169c1.1781-1.152 16.347-2.16 33.709-2.2401 17.362-0.08011 35.048-0.16602 39.302-0.19094 7.4768-0.04377 10.936-1.2574 8.9886-3.1538-0.51673-0.50322-23.516-1.6562-51.109-2.5622l-50.169-1.6472v5.9444c0 5.3798 0.81384 5.9444 8.5683 5.9444 4.7125 0 9.5322-0.94252 10.71-2.0945z" fill="#916e50"/>
  <path id="path3423" d="m644.67 232.22c-16.602-2.3404-75.273-4.8494-127.01-5.4315-20.477-0.23039-38.408-1.1465-39.847-2.0359-4.3783-2.706-55.659-3.6521-58.775-1.0844-1.9561 1.6122-3.8099 1.5003-6.0584-0.36583-1.8782-1.5588-10.17-2.6584-19.73-2.6164-9.0693 0.0399-19.534-0.097-23.254-0.30427-3.7204-0.20722-11.158 0.44151-16.528 1.4416l-9.7638 1.8184 1.6292-65.287c1.2051-48.292 0.95459-65.704-0.96247-66.888-1.4254-0.88096-3.0961-0.26911-3.7127 1.3597-1.5828 4.1814-2.4425 84.58-1.1649 108.94l1.0645 20.293-8.5209 0.70746-8.5209 0.70746 0.66116-42.421c0.82192-52.737-0.33955-88.339-2.9343-89.942-1.1194-0.69186-1.9799 27.578-1.9799 65.052v66.275l-52.424-0.90406c-28.833-0.49724-56.483-1.0453-61.443-1.2179-4.9606-0.1726-15.615-0.0745-23.675 0.21804-8.0609 0.29252-17.193 0.42886-20.293 0.30299-3.1004-0.12586-26.76-0.13883-52.578-0.0288-25.817 0.11001-47.935-0.41441-49.15-1.1654-1.2151-0.75099-1.6862-5.5878-1.0468-10.748 0.63938-5.1606 1.7232-29.676 2.4086-54.479 0.68534-24.803 1.864-51.945 2.6192-60.316 0.75523-8.371 0.55979-15.22-0.4343-15.22-3.8651 0-18.956 8.0384-20.022 10.665-1.6827 4.1477-2.0747 126.06-0.41406 128.75 1.8356 2.9701-5.8262 5.4569-10.861 3.5251-3.4892-1.3389-3.7328-5.2454-2.6394-42.329 2.0289-68.81 1.8344-128.63-0.42072-129.38-8.4714-2.8238-9.5477-5.9893-7.8307-23.029 1.6142-16.02 1.9762-16.851 7.335-16.848 3.4589 0.0018 5.637 1.2856 5.637 3.3225 0 1.8258 1.1838 3.3196 2.6306 3.3196s3.3916 0.761 4.3217 1.6911c0.93011 0.93011-0.50733 1.6911-3.1943 1.6911-4.2028 0-4.8854 1.2701-4.8854 9.09 0 5.3043 1.1738 9.4527 2.8185 9.9608 1.5502 0.47896 24.38 1.4073 50.733 2.063l47.915 1.1922v-5.516c0-4.0128-1.229-5.516-4.5096-5.516-2.4803 0-4.5096-1.0147-4.5096-2.2548s2.0293-2.2548 4.5096-2.2548 4.5096-0.85736 4.5096-1.9052c0-1.8502-46.995-4.8592-75.892-4.8592-14.347 0-17.086-1.6449-11.062-6.6443 2.3869-1.9809 11.125-2.2313 33.258-0.95286 16.511 0.95371 31.036 1.441 32.276 1.0828 1.9918-0.57528 16.361-0.39126 29.312 0.37538 2.4803 0.14682 5.5777 1.6798 6.883 3.4066 2.025 2.6788 2.7631 2.6702 5.0276-0.05849 1.8468-2.2252 5.9263-2.9092 13.41-2.2484 5.9158 0.52238 14.943 0.82299 20.062 0.66802 5.1181-0.15497 14.25 0.84549 20.293 2.2232 15.178 3.4602 30.154 4.3116 30.154 1.7142 0-1.2861 10.055-1.9324 24.779-1.5926 13.628 0.3145 25.466-0.11556 26.306-0.95569 2.8888-2.8888 14.439-1.5474 15.734 1.8273 1.0438 2.7201 6.4695 3.343 28.678 3.2923 40.629-0.09279 119.46 2.5783 122.07 4.1362 1.2503 0.74598 0.97854-0.24255-0.60393-2.1968-2.4963-3.0828-1.7643-3.7619 5.5299-5.1303 6.3671-1.1945 9.0344-0.71939 10.992 1.9578 1.4217 1.9442 3.24 2.8798 4.0408 2.079 2.2983-2.2983 32.517-1.1711 37.306 1.3916 5.8934 3.1541 25.054 4.9493 25.054 2.3473 0-1.273 2.2798-1.2344 5.7838 0.09779 9.8635 3.7501 28.262 2.735 31.664-1.7469 2.0112-2.6494 3.0189-2.9699 3.0671-0.97546 0.0467 1.9306 1.642 2.4721 4.5576 1.5467 2.554-0.8106 6.6124 0.06564 9.4235 2.0346 4.5576 3.1923 2.6079 3.507-25.343 4.0903l-30.28 0.63196 0.4811 6.6141c0.93316 12.829 0.1005 12.552 37.7 12.552 32.239 0 35.121-0.3373 37.275-4.362 3.0851-5.7646-0.73357-15.884-6.0659-16.074-3.4403-0.12286-3.369-0.38373 0.5079-1.8593 2.4803-0.94401 9.0756-1.5593 14.656-1.3674 5.5806 0.19197 11.308-0.5288 12.727-1.6017 4.081-3.0847 42.112-3.0026 43.144 0.09312 0.48095 1.4428 2.2033 2.6234 3.8275 2.6234 4.1763 0 5.6608 5.1996 4.1473 14.526l-1.3018 8.0218h15.803c17.599 0 21.977-2.6753 19.636-12.001-1.205-4.8013-3.2032-5.9422-13.062-7.4584l-11.64-1.79 13.529-1.3498c18.737-1.8694 20.845-1.0256 21.767 8.7133 1.1837 12.505-0.16595 17.823-4.8338 19.043-2.7936 0.73054-4.7869 4.0552-5.8597 9.7737-1.9548 10.42 2.9583 146.06 5.5926 154.4 1.4813 4.6898 0.92408 6.4398-2.7888 8.7585-5.7353 3.5817-57.457 5.1236-77.429 2.3083zm59.342-48.624c0.36038-2.4095 1.7398-10.325 3.0654-17.589 1.3256-7.2647 2.1252-24.975 1.777-39.355l-0.63315-26.147-9.0192-6.2296c-4.9606-3.4263-9.5854-6.2633-10.277-6.3045-1.4029-0.08352-0.42905 35.136 1.4787 53.477 0.85078 8.1793 2.2265 11.838 4.4513 11.838 1.771 0 3.22 1.522 3.22 3.3822s-1.0147 3.3822-2.2548 3.3822c-3.3913 0-2.8553 26.442 0.5637 27.809 4.4993 1.7997 6.9245 0.44461 7.6286-4.2626zm3.0818-104.72c0-6.3886-0.50106-6.7644-9.0192-6.7644-10.514 0-11.334 2.3611-3.0781 8.8556 8.4036 6.6103 12.097 5.9718 12.097-2.0912zm-381.48-4.901c-1.0208-10.337-6.3436-11.113-6.3436-0.92525 0 5.8243 0.984 8.0797 3.5251 8.0797 2.6047 0 3.3406-1.868 2.8185-7.1545zm18.459-0.92525c0-10.188-5.3227-9.4115-6.3436 0.92525-0.52207 5.2865 0.2138 7.1545 2.8185 7.1545 2.5411 0 3.5251-2.2554 3.5251-8.0797zm-289.52-0.069c4.7249-2.2421 7.6689-5.2717 7.6689-7.8918 0-3.4583-1.6848-4.2527-9.0192-4.2527-8.8045 0-9.0192 0.18789-9.0192 7.8918 0 9.0686 0.11847 9.1172 10.37 4.2527zm602.99-26.948c5.0362-13.246 3.7671-14.509-14.579-14.509-9.2279 0-17.394 0.9974-18.148 2.2165-0.7534 1.219-0.70036 5.785 0.11793 10.147l1.4876 7.9302h14.461c13.448 0 14.615-0.40507 16.66-5.7838zm-131.26-4.926-0.7-8.456-24.04-2.009c-13.22-1.105-25.65-1.39-27.62-0.634-3.6066 1.384-5.1701 14.96-2.0788 18.051 0.82675 0.82676 13.571 1.5032 28.321 1.5032h26.818l-0.6998-8.4555zm-202.5 4.1871c0-1.1075-1.592-2.6245-3.5377-3.3711-2.3512-0.90224-3.0565-2.8737-2.1029-5.8783 1.4447-4.552-1.9681-6.3725-4.442-2.3696-2.5894 4.1898 1.44 13.633 5.8174 13.633 2.3458 0 4.2652-0.9061 4.2652-2.0136zm9.5425-2.496c1.549-2.4803 4.0942-4.5096 5.6561-4.5096s2.8398-1.0745 2.8398-2.3879c0-1.3133-1.0147-1.7608-2.2548-0.99433-1.2401 0.76645-2.2548-0.18832-2.2548-2.1217s-1.8536-3.5153-4.1191-3.5153c-3.2942 0-3.9203 1.3547-3.1263 6.7644 0.59597 4.0605-0.0113 6.7644-1.5179 6.7644-1.3809 0-2.5107 1.0147-2.5107 2.2548 0 3.8292 4.3236 2.4915 7.2877-2.2548zm-111.3-1.715c1.1686-2.1834 1.6195-6.6124 1.0021-9.842l-1.1225-5.8721-35.809-1.6043c-19.695-0.88238-36.852-0.95957-38.127-0.17152-1.2751 0.78805-2.3183 5.3852-2.3183 10.216v8.7831l15.22 0.7888c44.907 2.3274 58.962 1.7993 61.155-2.2979zm67.933-4.7863c0-10.845-1.782-11.464-33.093-11.506-25.052-0.03362-25.601 0.29283-23.646 14.062l0.88052 6.2007h27.929 27.929v-8.7562zm59.106-0.26298c0.61358-4.1806-0.00077-6.7644-1.6084-6.7644s-2.222 2.5838-1.6084 6.7644c0.54604 3.7204 1.2698 6.7644 1.6084 6.7644 0.33856 0 1.0623-3.044 1.6084-6.7644zm71.673 1.775c0-2.2164-1.0147-4.0298-2.2548-4.0298-1.2402 0-2.2548 1.4374-2.2548 3.1943s-1.2683 3.6828-2.8185 4.2798c-1.5502 0.59702-0.53551 0.97298 2.2548 0.83547 3.2755-0.16142 5.0733-1.6781 5.0733-4.2798zm16.339 0.85563c0.65773-2.5151-0.12221-4.1338-1.9918-4.1338-3.2042 0-4.1704 4.1637-1.5696 6.7644 2.1386 2.1387 2.3563 1.9779 3.5614-2.6306zm-81.075-2.6306c-0.64862-2.4803-1.4499-4.5096-1.7807-4.5096s-1.1321 2.0293-1.7807 4.5096c-0.73701 2.8184-0.0692 4.5096 1.7807 4.5096s2.5177-1.6913 1.7807-4.5096zm16.258 2.2548c-0.76645-1.2401-1.841-2.2548-2.3879-2.2548-0.54688 0-0.99433 1.0147-0.99433 2.2548s1.0746 2.2548 2.3879 2.2548 1.7608-1.0147 0.99432-2.2548zm11.943-2.005c0.67963-2.0409 0.0677-2.5295-1.7564-1.4022-1.5962 0.98653-3.6454 0.3946-4.7676-1.3772-1.4502-2.2896-1.9773-1.7288-2.0027 2.1313-0.0243 3.6879 1.0782 5.0228 3.7245 4.5096 2.0675-0.40097 4.2284-2.1386 4.8021-3.8614zm4.2061-3.0683c-0.6255-1.5502-1.1373-0.28185-1.1373 2.8185s0.5118 4.3687 1.1373 2.8185c0.62551-1.5502 0.62551-4.0868 0-5.637zm9.7807 2.8185c0-2.4803-1.0147-4.5096-2.2548-4.5096s-2.2548 2.0293-2.2548 4.5096 1.0147 4.5096 2.2548 4.5096 2.2548-2.0293 2.2548-4.5096zm30.282-2.5103c-1.8396-2.9766-2.572-2.4825-3.9113 2.6392-0.99113 3.79-0.63133 4.1557 1.967 1.9993 1.749-1.4515 2.624-3.5388 1.9443-4.6385zm19.324 4.7651c0-1.2401-1.522-2.2548-3.3822-2.2548s-3.3822 1.0147-3.3822 2.2548 1.522 2.2548 3.3822 2.2548 3.3822-1.0147 3.3822-2.2548zm-36.077-4.5096c0-1.2401-1.0147-2.2548-2.2548-2.2548s-2.2548 1.0147-2.2548 2.2548 1.0147 2.2548 2.2548 2.2548c1.2402 0 2.2548-1.0147 2.2548-2.2548zm-368.66 0-9.0192-1.6149 8.3224-0.31997c4.5773-0.17599 8.8916-1.2408 9.5872-2.3663 1.067-1.7264 15.865-2.5529 54.244-3.0298 10.187-0.12658 15.371 2.6252 12.183 6.4669-2.0048 2.4156-9.7713 3.0467-34.443 2.7989-17.52-0.17598-35.914-1.0467-40.874-1.9348z" fill="#5e5759"/>
  <path id="path3421" d="m643.57 231.06c-1.3126-1.3126-8.6166-1.6851-86.421-4.4082-56.381-1.9732-81.192-3.527-144.16-9.0279-4.8821-0.42648-11.224 0.117-14.093 1.2077-3.46 1.3155-5.216 1.1616-5.216-0.45713 0-1.4704-1.5682-1.7626-3.9459-0.73503-2.1702 0.93786-11.049 1.8665-19.73 2.0636-8.681 0.19709-17.559 1.1689-19.73 2.1595-3.7097 1.6933-3.9459-2.1949-3.9459-64.957 0-62.766-0.87829-72.092-6.0216-63.939-0.97797 1.5502-1.9173 31.229-2.0874 65.953l-0.30931 63.135-5.9374 0.10478-5.9374 0.10476-0.35231-41.819c-0.19378-23-0.70265-47.399-1.1308-54.22-0.42819-6.8208-0.71879-17.728-0.64578-24.239 0.10733-9.5715-0.58255-11.838-3.6037-11.838-3.3962 0-3.6925 5.3909-3.2532 59.189 0.26585 32.554 0.36709 62.065 0.22503 65.582l-0.25844 6.3929-52.424-1.2424c-62.849-1.4894-42.993-1.4731-130.81-0.10754l-73.877 1.1488 1.1349-38.987c0.62417-21.443 1.7896-53.446 2.5899-71.118 1.0834-23.923 0.77872-32.131-1.1928-32.131-1.4563 0-6.6661 2.0499-11.577 4.5554l-8.9294 4.5554v25.523c0 53.951-2.852 107.42-5.7299 107.42-1.5199 0-3.191-1.7757-3.7136-3.9459-1.7003-7.0607-2.2899-141.26-0.65886-149.95 1.0469-5.5804 2.8394-8.4973 5.28-8.5917 2.6933-0.10417 2.4047-0.66428-1.0647-2.0661-2.6178-1.0578-5.3763-3.5301-6.1299-5.4941-0.75366-1.964-2.8156-3.5709-4.582-3.5709-4.6156 0-5.3627-3.7097-4.2005-20.857 0.96549-14.244 1.3761-15.22 6.406-15.22 3.274 0 5.3743 1.3218 5.3743 3.3822 0 1.8602 1.7757 3.4465 3.9459 3.5251 3.0436 0.11024 2.7947 0.60596-1.0884 2.1677-4.2449 1.7073-4.8169 3.1876-3.6477 9.44 0.76264 4.0784 2.0134 8.0468 2.7796 8.8187 2.3394 2.3572 99.477 4.4907 99.477 2.1848 0-1.1507 0.61589-3.6971 1.3686-5.6588 0.99671-2.5974-0.0756-3.6377-3.9459-3.8282-3.8213-0.18807-4.2058-0.5513-1.3686-1.2927 2.1702-0.56714 3.9459-2.3257 3.9459-3.908 0-3.2422-28.862-5.7804-65.953-5.8001-18.533-0.0098-21.984-0.57127-21.984-3.576 0-3.164 5.5811-3.4806 49.688-2.8185 40.158 0.60279 50.072 1.3668 51.689 3.9831 1.6255 2.6308 2.643 2.7037 5.432 0.38906 4.2031-3.4883 52.372-2.0963 59.502 1.7195 5.1173 2.7387 25.347 2.5798 25.347-0.19914 0-2.7253 44.591-2.1537 45.503 0.58332 0.48745 1.4624 3.6652 0.90972 8.4264-1.4655 7.2712-3.6274 7.7922-3.6104 10.687 0.34847 2.7698 3.788 7.4468 4.22 52.078 4.8104 66.485 0.87948 96.522 2.1 99.678 4.0502 3.8745 2.3946 5.6684-0.44907 2.6088-4.1355-2.1499-2.5904-1.3432-3.3617 4.3972-4.2042 4.2667-0.62622 7.4404 0.03758 8.074 1.6888 0.73673 1.9199 6.7602 2.49 20.468 1.9371 12.571-0.50707 20.541 0.1438 22.591 1.8448 1.8099 1.502 13.455 2.9865 27.174 3.4642 26.836 0.93432 34.208 2.8425 10.982 2.8425-14.095 0-15.03 0.31635-15.001 5.0733 0.018 2.7903 0.64262 7.3563 1.3904 10.147 1.3397 4.9991 1.899 5.0733 38.258 5.0733h36.898l1.3621-5.427c1.5287-6.0908-2.2496-14.848-6.4288-14.901-1.7542-0.0221-1.5502-0.78654 0.5674-2.1258 2.0735-1.3114 4.3321-1.2402 6.0566 0.191 1.858 1.542 4.1634 1.5259 7.1073-0.04965 2.3965-1.2826 4.9543-1.735 5.6839-1.0053 0.72963 0.72965 3.146 0.54382 5.3698-0.41295 2.2237-0.95677 12.403-2.1274 22.621-2.6015 24.178-1.1218 29.901 2.0256 29.901 16.445v9.8873h16.982c18.744 0 21.596-2.1293 17.697-13.215-1.4274-4.0589-4.1966-6.3257-8.798-7.2019-6.4822-1.2343-6.4023-1.3195 2.3043-2.459 15.508-2.0297 16.911-0.85825 16.911 14.12 0 11.66-0.53349 13.266-4.4074 13.266-3.2904 0-4.8007 2.0963-5.9591 8.2713-1.6846 8.9797 2.7525 153.75 4.8825 159.3 1.4898 3.8824-7.2934 7.7049-10.45 4.548-1.9642-1.9642-4.2588-56.993-4.3239-103.69l-0.035-25.152-9.9844-5.8513c-5.4914-3.2182-10.646-5.8513-11.455-5.8513-0.80907 0-0.75944 13.952 0.11026 31.004 1.1194 21.946 2.5328 32.091 4.838 34.726 2.1198 2.4228 2.4406 4.2264 0.9189 5.1668-1.5518 0.95905-1.8649 13.452-0.93155 37.161l1.4061 35.717-24.67 0.36641c-13.569 0.20158-25.273-0.23648-26.01-0.97333zm-137.15-42.82c0-30.671-0.44584-34.949-3.642-34.949-3.0592 0-3.4293 1.8945-2.3126 11.838 0.73119 6.5108 1.5196 21.477 1.7519 33.258 0.40284 20.426 0.96902 24.803 3.2083 24.803 0.54688 0 0.99432-15.727 0.99432-34.949zm-237.65 22.031c-0.74927-0.74925-1.2822 0.58249-1.1843 2.9594 0.10823 2.6267 0.64249 3.161 1.3623 1.3623 0.65134-1.6277 0.57125-3.5725-0.17791-4.3217zm-97.681-32.742c0.72837-15.482 0.38632-26.494-0.82298-26.494-1.1426 0-2.0694 12.286-2.0694 27.433 0 15.088 0.37034 27.011 0.82297 26.494 0.45264-0.51672 1.3839-12.862 2.0694-27.433zm364.03-13.597c-0.47288-5.2332-0.85416-0.38293-0.84729 10.778 0.007 11.161 0.39378 15.443 0.85978 9.5149 0.46603-5.9281 0.46039-15.06-0.0135-20.293zm-419.38-3.3142c-0.46449-5.8907-0.84452-1.071-0.84452 10.71s0.38003 16.601 0.84452 10.71c0.46449-5.8907 0.46449-15.53 0-21.421zm110.86 10.147c-0.14994-13.913-0.82577-18.98-2.03-15.22-3.558 11.11-2.5178 36.077 1.5032 36.077 0.41339 0 0.65046-9.3856 0.52685-20.857zm362.62-6.8147c-0.49811-4.0028-0.89748-0.17519-0.88747 8.5058 0.009 8.681 0.41755 11.956 0.90567 7.2778 0.4881-4.6782 0.47991-11.781-0.018-15.784zm-317.9-4.3997c-0.47633-5.3034-0.87274-1.5252-0.88093 8.3959-0.009 9.9211 0.38154 14.26 0.86603 9.6425 0.48451-4.6178 0.49121-12.735 0.0158-18.038zm318.3-8.6365c-4.5248-1.0718-11.013-1.0573-14.656 0.0327-5.2476 1.5701-3.6462 1.9495 8.1193 1.9232 12.966-0.0289 13.72-0.25455 6.5369-1.9559zm118.48-72.843c-1.2975-5.1697-2.6642-5.9632-10.271-5.9632-11.338 0-11.467 4.3385-0.31926 10.713 9.5372 5.4539 12.786 3.9967 10.591-4.7503zm-382.07-5.001c0-6.4395-0.78704-7.9056-3.92-7.3022-6.9849 1.3452-6.5588 15.359 0.46707 15.359 2.4565 0 3.453-2.3251 3.453-8.0572zm19.166 0.16533c0-4.5908-1.2433-6.9421-3.9459-7.4626-3.1756-0.61156-3.9459 0.84535-3.9459 7.4626s0.77035 8.0741 3.9459 7.4626c2.7026-0.52048 3.9459-2.8718 3.9459-7.4626zm-291.82 1.128c2.782 0 11.09-8.4458 11.09-11.274 0-1.2401-4.566-2.2548-10.147-2.2548h-10.147v8.1331c0 6.4899 0.72058 7.8565 3.5666 6.7644 1.9616-0.75275 4.4983-1.3686 5.637-1.3686zm472.88-32.965c0.84071-11.502-0.66557-12.057-32.81-12.1l-23.112-0.03079v10.059 10.059l19.73 0.80187c36.87 1.4985 35.414 1.8521 36.192-8.7887zm132.06 5.3439c3.8665-14.428 3.0015-15.22-16.617-15.22h-18.038v8.6434c0 4.7539 0.67644 9.3199 1.5032 10.147 0.82675 0.82676 8.3184 1.5032 16.648 1.5032 13.8 0 15.266-0.4506 16.504-5.0733zm-367.82-8.086c3.2331-12.549 0.33003-13.898-29.894-13.898-29.091 0-30.392 0.62964-27.825 13.463 1.3147 6.5733 1.5275 6.659 18.541 7.4632 35.598 1.6828 36.998 1.4317 39.178-7.0284zm33.276 6.6363c0-1.1075-1.592-2.6245-3.5377-3.3711-2.3512-0.90224-3.0565-2.8737-2.1029-5.8783 1.4447-4.552-1.9681-6.3725-4.442-2.3696-2.5894 4.1898 1.44 13.633 5.8174 13.633 2.3458 0 4.2652-0.9061 4.2652-2.0136zm9.5425-2.496c1.549-2.4803 4.0942-4.5096 5.6561-4.5096s2.8398-1.0745 2.8398-2.3879c0-1.3133-1.0147-1.7608-2.2548-0.99433-1.2401 0.76645-2.2548-0.18832-2.2548-2.1217s-1.8536-3.5153-4.1191-3.5153c-3.2942 0-3.9203 1.3547-3.1263 6.7644 0.59597 4.0605-0.0113 6.7644-1.5179 6.7644-1.3809 0-2.5107 1.0147-2.5107 2.2548 0 3.8292 4.3236 2.4915 7.2877-2.2548zm-110.21-2.887c0.70971-2.8277 0.72775-7.2928 0.0401-9.9224-1.1737-4.4883-3.2058-4.8785-33.177-6.3703-43.225-2.1516-43.04-2.1914-43.888 9.4742l-0.68738 9.4608 11.961 0.83243c6.5788 0.45784 23.774 1.0201 38.211 1.2495 25.604 0.40683 26.281 0.29057 27.54-4.7242zm125.95-3.8779c0.61358-4.1806-0.00077-6.7644-1.6084-6.7644s-2.222 2.5838-1.6084 6.7644c0.54604 3.7204 1.2698 6.7644 1.6084 6.7644 0.33856 0 1.0623-3.044 1.6084-6.7644zm71.673 1.775c0-2.2164-1.0147-4.0298-2.2548-4.0298-1.2402 0-2.2548 1.4374-2.2548 3.1943s-1.2683 3.6828-2.8185 4.2798c-1.5502 0.59702-0.53551 0.97298 2.2548 0.83547 3.2755-0.16142 5.0733-1.6781 5.0733-4.2798zm16.339 0.85563c0.65773-2.5151-0.12221-4.1338-1.9918-4.1338-3.2042 0-4.1704 4.1637-1.5696 6.7644 2.1386 2.1387 2.3563 1.9779 3.5614-2.6306zm-81.075-2.6306c-0.64862-2.4803-1.4499-4.5096-1.7807-4.5096s-1.1321 2.0293-1.7807 4.5096c-0.73701 2.8184-0.0692 4.5096 1.7807 4.5096s2.5177-1.6913 1.7807-4.5096zm16.258 2.2548c-0.76645-1.2401-1.841-2.2548-2.3879-2.2548-0.54688 0-0.99433 1.0147-0.99433 2.2548s1.0746 2.2548 2.3879 2.2548 1.7608-1.0147 0.99432-2.2548zm11.943-2.005c0.67963-2.0409 0.0677-2.5295-1.7564-1.4022-1.5962 0.98653-3.6454 0.3946-4.7676-1.3772-1.4502-2.2896-1.9773-1.7288-2.0027 2.1313-0.0243 3.6879 1.0782 5.0228 3.7245 4.5096 2.0675-0.40097 4.2284-2.1386 4.8021-3.8614zm4.2061-3.0683c-0.6255-1.5502-1.1373-0.28185-1.1373 2.8185s0.5118 4.3687 1.1373 2.8185c0.62551-1.5502 0.62551-4.0868 0-5.637zm9.7807 2.8185c0-2.4803-1.0147-4.5096-2.2548-4.5096s-2.2548 2.0293-2.2548 4.5096 1.0147 4.5096 2.2548 4.5096 2.2548-2.0293 2.2548-4.5096zm30.282-2.5103c-1.8396-2.9766-2.572-2.4825-3.9113 2.6392-0.99113 3.79-0.63133 4.1557 1.967 1.9993 1.749-1.4515 2.624-3.5388 1.9443-4.6385zm19.324 4.7651c0-1.2401-1.522-2.2548-3.3822-2.2548s-3.3822 1.0147-3.3822 2.2548 1.522 2.2548 3.3822 2.2548 3.3822-1.0147 3.3822-2.2548zm-36.077-4.5096c0-1.2401-1.0147-2.2548-2.2548-2.2548s-2.2548 1.0147-2.2548 2.2548 1.0147 2.2548 2.2548 2.2548c1.2402 0 2.2548-1.0147 2.2548-2.2548zm-366.41 0.09511-9.0192-1.3934 9.0192-1.6754c16.607-3.085 67.119-5.0784 70.814-2.7946 1.2487 0.77176 1.7244 2.8262 1.057 4.5653-0.96547 2.516-7.5109 3.114-32.033 2.9269-16.951-0.12938-34.878-0.86228-39.838-1.6287zm528.19-6.3604c2.7544-2.7994 4.161-3.1659 4.6584-1.2135 0.45684 1.7935 2.9878 2.3419 7.0546 1.5285 3.5567-0.71134 7.0159-0.17838 7.8762 1.2135 1.0459 1.6924-2.4536 2.482-11.001 2.482-11.99 0-12.363-0.17412-8.5886-4.0105z" fill="#492d20"/>
  <path id="path3419" d="m649.03 230.73c-5.0058-1.0784-5.0733-1.5757-5.0733-37.389 0-19.963-0.46487-35.831-1.0331-35.263-0.56819 0.56819-1.1668 16.737-1.3301 35.931l-0.29707 34.898-21.782-0.51232c-11.98-0.28178-23.557-0.55416-25.728-0.60528-3.5948-0.0847-3.9459-3.4032-3.9459-37.297v-37.204h10.522c5.7873 0 9.9113-0.61108 9.1644-1.358-0.74688-0.74688-24.507-1.8628-52.8-2.4799-28.293-0.61708-50.591-0.25966-49.551 0.79426 1.0403 1.0539 4.0843 1.9963 6.7644 2.0942s7.9184 0.35158 11.641 0.5637l6.7677 0.38567 0.75265 34.386c0.41399 18.912 1.1735 34.809 1.6879 35.325 0.51437 0.51672 0.9352-14.957 0.9352-34.386v-35.325l25.367 0.0183 25.367 0.0183 0.36891 37.371 0.36888 37.371-11.643-1.6766c-6.4036-0.92216-24.555-1.5172-40.336-1.3223l-28.693 0.3544-0.61951-36.602c-0.56668-33.48-0.97349-36.67-4.77-37.399-3.942-0.75706-4.069 0.95573-2.5285 34.093l1.622 34.89-9.873 1.0418c-5.4301 0.57298-11.395 0.37164-13.255-0.44742-1.8602-0.81905-12.161-1.4225-22.892-1.341-10.73 0.0815-19.107-0.50647-18.615-1.3066 1.6216-2.638-4.9527-3.7811-18.461-3.2098-7.3227 0.30971-18.701 0.72496-25.285 0.92278-8.1078 0.24361-11.473 1.1652-10.428 2.856 1.0716 1.7339-0.0929 1.9394-3.8128 0.67281-6.7736-2.3064-22.671-1.4124-25.518 1.435-1.1881 1.188-2.9719 2.1601-3.964 2.1601-0.99211 0-1.7123-24.098-1.6005-53.552 0.14183-37.364 0.84296-51.336 2.3193-46.224 2.9069 10.068 6.4966 9.2068 6.4966-1.558 0-4.8874 0.8026-9.3822 1.7836-9.9885 0.98097-0.60627 1.3611 2.5163 0.84478 6.9391-0.65004 5.5682-0.15829 7.5591 1.5986 6.4732 3.0316-1.8736 3.4205-18.529 0.4752-20.349-1.1342-0.70098-2.5761 0.00013-3.2042 1.558-0.67705 1.6793-1.2145 1.1938-1.32-1.1927-0.14663-3.3157-0.97291-3.5998-4.6876-1.6118-4.1224 2.2062-4.5096 1.7148-4.5096-5.723 0-6.5387-0.77486-7.9855-3.9459-7.3676-4.7036 0.91651-4.663 0.28218-4.9004 76.476l-0.17292 55.494-5.7231-1.094-5.7231-1.094 0.1779-40.871c0.0978-22.479 0.0424-41.886-0.12307-43.126-0.1655-1.2401-0.13641-6.4638 0.0645-11.608 0.2009-5.1443-0.56429-9.9278-1.7004-10.63-1.1387-0.70375-1.3703-5.859-0.51608-11.488 1.6346-10.771 1.1174-12.498-3.7435-12.498-2.4363 0-3.0064 12.419-3.0064 65.497v65.497l-22.544-0.67163-22.544-0.67163-0.004-35.646c-0.003-23.189-0.79202-35.159-2.2588-34.253-1.3397 0.82801-2.2548 15.009-2.2548 34.944v33.551l-9.5829 1.4245c-11.683 1.7366-32.343 0.61624-31.567-1.7118 0.31004-0.93011 0.56371-16.911 0.56371-35.513v-33.822l6.2007-0.1526 6.2007-0.15261-5.3312-2.5618c-9.6674-4.6456-11.58 1.767-11.58 38.828v32.844l-17.869 0.26429c-9.828 0.14537-21.575 0.9595-26.104 1.8092l-8.235 1.5449 1.4721-34.521c0.80967-18.986 1.9131-35.899 2.452-37.584 0.744-2.3262 5.0454-2.8585 17.868-2.211 9.2882 0.46904 16.888 0.0721 16.888-0.88213 0-2.9074-34.897-2.0131-37.881 0.97085-1.8677 1.8677-2.7058 13.347-2.7058 37.064 0 31.226-0.35974 34.357-3.9459 34.34-2.1702-0.01-14.131 0.55606-26.579 1.2578l-22.633 1.276 0.50924-36.631c0.35613-25.617-0.0766-33.58-1.4392-26.484-1.0716 5.5806-2.0236 21.443-2.1156 35.25-0.19403 29.144 2.4355 26.757-29.48 26.757h-21.421l0.13588-9.0192c0.07472-4.9606 0.94004-37.325 1.9229-71.92 1.5781-55.546 1.3905-62.749-1.6045-61.6-4.1655 1.5985-3.7439-4.6756 0.49-7.2923 1.5849-0.97954 2.5143-3.6887 2.0652-6.0204-0.667-3.416-2.837-4.257-10.945-4.257h-10.116l-0.71846 8.7683c-0.71166 8.6853-0.65316 8.7553 6.1806 7.3885 8.5412-1.7082 8.4727 2.4278-0.13058 7.8811l-5.9425 3.7668-1.9493 53.742c-1.0721 29.558-2.2563 47.819-2.6314 40.581-0.564-10.883-1.2956-12.926-4.2262-11.801-3.1278 1.2003-3.3856-1.2268-2.194-20.661 0.7426-12.112 1.3761-36.987 1.4077-55.28 0.05492-31.736 0.26398-33.258 4.5672-33.258 2.4803 0 4.5096-1.0147 4.5096-2.2548s-1.911-2.2548-4.2466-2.2548c-2.3503 0-4.7732-2.0137-5.4259-4.5096-0.67762-2.5912-3.0756-4.5096-5.637-4.5096s-4.9594-1.9184-5.637-4.5096c-0.85849-3.2829-0.06918-4.5096 2.9016-4.5096 3.2729 0 4.2356-2.1759 4.8622-10.99 0.55629-7.8248 0.0082-10.692-1.9029-9.9569-1.5701 0.60431-2.4793 4.6979-2.1906 9.8626 0.27146 4.8562-0.34846 8.8295-1.3776 8.8295s-1.6501-5.4628-1.38-12.14c0.44246-10.936 0.97969-12.11 5.4209-11.838 4.4834 0.27449 4.9088 1.4577 4.698 13.069-0.12742 7.0221 0.35771 13.361 1.0781 14.087 0.72036 0.7257 24.058 1.5756 51.861 1.8887l50.551 0.56927 0.67903-9.2898c0.85-11.624-0.42-12.054-35.86-12.096-31.156-0.036-54.224-2.167-52.563-4.855 0.65945-1.067 7.7943-1.94 15.855-1.94 10.083 0 14.178 0.77376 13.124 2.4798-1.1144 1.8031-0.26831 1.8031 3.1009 0 2.5484-1.3639 8.5052-2.3274 13.237-2.1411l8.6038 0.33866-10.147 1.7204c-8.6601 1.4684-7.8342 1.6347 5.637 1.135 8.681-0.32196 17.813-1.3443 20.293-2.2718 3.7343-1.3965 3.9281-1.2337 1.1274 0.94682-2.6259 2.0444 0.22287 2.3185 12.739 1.2258 12.2-1.0651 16.379-0.69411 17.18 1.5254 0.85446 2.3668 1.98 2.3888 5.8324 0.11426 5.7265-3.3811 23.78-3.8547 21.75-0.57052-0.89552 1.449 0.79369 1.418 4.7526-0.08717 4.5178-1.7177 10.578-1.4177 22.918 1.1342 18.697 3.8667 34.332 4.526 34.332 1.4478 0-2.6417 20.928-2.8412 36.342-0.34649 7.1817 1.1623 13.011 1.1261 14.279-0.08864 3.433-3.29 10.279-2.4731 8.9216 1.0646-0.98807 2.5749 6.1863 3.2035 41.221 3.6117 23.329 0.27185 56.623 0.85387 73.985 1.2934 17.362 0.4395 33.91 0.84355 36.774 0.89789 2.8635 0.05434 4.645 1.0071 3.9588 2.1173-0.68613 1.1102 0.35164 2.6322 2.3062 3.3822 5.3474 2.052 5.5051 1.8294 3.129-4.4201-2.993-7.8721-3.0679-7.745 4.5654-7.745 4.5096 0 6.7644 1.1274 6.7644 3.3822 0 3.5648 3.4798 4.6179 5.3358 1.6148 1.436-2.3236 33.627-0.98918 40.246 1.6683 3.6038 1.4468-2.4689 2.111-20.215 2.211l-25.367 0.14292v9.8836c0 12.09 1.2754 12.59 32.204 12.634 20.801 0.02904 22.163-0.25684 23.926-5.0217 1.028-2.7789 1.1025-7.7254 0.1655-10.992-1.5019-5.2369-1.0647-5.9397 3.6953-5.9397 4.6959 0 5.4032 1.0641 5.4333 8.1737 0.0593 14.037-0.0868 13.989 40.721 13.305l37.036-0.62145-0.29938-8.9311c-0.1646-4.9121-1.4393-9.3111-2.8326-9.7755-1.3932-0.46442-1.9292-1.8217-1.191-3.0161 0.8336-1.3488 2.4931-1.2165 4.3795 0.34906 2.1333 1.7705 4.3342 1.8267 7.3946 0.18882 2.3965-1.2826 4.9543-1.735 5.6839-1.0053 0.72963 0.72965 3.146 0.5584 5.3698-0.38056 2.2237-0.93895 12.743-1.9283 23.376-2.1986 15.986-0.40634 20.232 0.23622 24.523 3.711 4.4114 3.5722 4.9741 5.5509 3.7519 13.194l-1.4378 8.9917h19.192 19.192v-7.7308c0-4.2519-1.4856-9.2164-3.3014-11.032-2.8987-2.8987-2.7614-3.4426 1.1252-4.459 2.4346-0.63666 5.005-0.22162 5.712 0.92233 0.70699 1.1439 2.23 1.4961 3.3845 0.78265 1.2072-0.74612 2.099 4.5069 2.099 12.365 0 11.97-0.53619 13.662-4.3304 13.662-3.0128 0-4.7994 2.1349-5.8715 7.0164-1.5894 7.2364 0.59259 104.71 3.149 140.67 1.428 20.089 1.3904 20.293-3.7426 20.293-3.3868 0-5.4921-1.564-6.0704-4.5096-0.48693-2.4803-1.4449-30.335-2.1288-61.899-1.3494-62.273-0.52591-58.721-15.715-67.789l-8.7795-5.2414 1.1353 33.442c0.98494 29.012 1.6822 33.842 5.2645 36.461 2.5716 1.8804 3.0183 3.0193 1.184 3.0193-2.3338 0-2.7743 7.3668-2.122 35.489l0.82312 35.489-6.7644 0.46994c-3.7204 0.2585-12.345 0.94416-19.166 1.5237-6.8208 0.57956-14.684 0.56195-17.475-0.0392zm-293.69-91.1c0-4.0242-0.93931-6.317-2.2548-5.5039-1.2402 0.76645-2.2548 3.8703-2.2548 6.8975s1.0147 5.504 2.2548 5.504 2.2548-3.1039 2.2548-6.8975zm353.59-59.06c-0.67989-7.0515-1.1197-7.3544-11.649-8.0248-12.845-0.81786-13.304 2.2925-1.5153 10.28 10.661 7.2231 14.023 6.6473 13.164-2.2548zm-382.9-6.2007c0-7.516-0.75159-9.0192-4.5096-9.0192-3.6297 0-4.5096 1.5032-4.5096 7.7039 0 6.8656 1.9673 9.5922 7.3281 10.157 0.9301 0.09791 1.6911-3.8806 1.6911-8.8412zm16.727 7.6506c2.2826-0.87592 3.5666-4.1229 3.5666-9.0192 0-6.1474-0.88605-7.6506-4.5096-7.6506-3.758 0-4.5096 1.5032-4.5096 9.0192 0 9.6602 0.0462 9.7252 5.4526 7.6506zm-274.71-9.377c1.3489-0.91112 3.0729-4.1054 3.8312-7.0983 1.3402-5.2903 1.272-5.3217-2.4526-1.1274-2.1071 2.3729-5.2934 5.5827-7.0806 7.1328-2.8294 2.4542-2.8294 2.814 0 2.784 1.7872-0.01894 4.3531-0.77999 5.7021-1.6911zm226.41-18.7c0-1.3133-1.0147-1.7608-2.2548-0.99433-1.2402 0.76645-2.2548 1.841-2.2548 2.3879 0 0.54688 1.0147 0.99433 2.2548 0.99433s2.2548-1.0745 2.2548-2.3879zm172.34-10.242c-1.6028-8.0138-10.984-10.466-12.843-3.3575-1.5186 5.8071 1.33 9.6664 5.8537 7.9305 2.6615-1.0213 3.7656-0.25032 3.7656 2.6294 0 2.7498 0.74221 3.3322 2.283 1.7914 1.2556-1.2556 1.679-5.3029 0.94082-8.9938zm-6.606-0.89912c-0.76645-1.2401-0.31901-2.2548 0.99432-2.2548s2.3879 1.0147 2.3879 2.2548-0.44745 2.2548-0.99433 2.2548-1.6214-1.0147-2.3879-2.2548zm199.43 0.5637c1.2915-4.6505 2.3539-9.2165 2.3608-10.147 0.007-0.93011-8.612-1.6911-19.153-1.6911h-19.166v10.147 10.147h16.805 16.805l2.3482-8.4555zm-496.5 4.6464c-2.1702-0.56714-5.7216-0.56714-7.8918 0-2.1702 0.56715-0.39459 1.0312 3.9459 1.0312s6.1162-0.46403 3.9459-1.0312zm16.911 0.06099c-1.5502-0.62551-4.0868-0.62551-5.637 0s-0.28185 1.1373 2.8185 1.1373 4.3687-0.51178 2.8185-1.1373zm125.71-8.9126c0-1.7176 1.2683-3.1384 2.8185-3.1574 2.041-0.02501 1.9613-0.57746-0.28889-2.0027-1.709-1.0825-2.4102-3.0963-1.558-4.4751 0.94516-1.5293-0.26113-2.5069-3.0933-2.5069-4.1286 0-5.8823 3.423-4.9097 9.5829 0.14685 0.93011-0.74765 1.6911-1.9878 1.6911s-2.2548 2.56-2.2548 5.689c0 5.55 0.13777 5.5988 5.637 1.9955 3.1004-2.0314 5.637-5.0988 5.637-6.8164zm27.245 4.4576c2.5158-2.1765 6.675-2.6622 14.093-1.6455 9.9368 1.362 10.54 1.1425 10.83-3.9374 0.30167-5.2854 0.32421-5.2908 1.2842-0.30648 0.53746 2.7903 1.9212 5.0733 3.0752 5.0733 1.1539 0 2.2362-2.283 2.405-5.0733 0.30041-4.9631 0.32763-4.9682 1.2539-0.23183 0.83468 4.2682 2.3742 4.8135 13.002 4.6051 10.377-0.20347 11.945-0.80748 11.265-4.338-0.43446-2.2559 0.17181-3.5073 1.347-2.7809 1.1753 0.72638 2.137 2.7828 2.137 4.5698 0 3.9974 2.672 4.1757 6.4539 0.43063 2.2798-2.2576 3.2974-2.0186 5.1137 1.2008 1.8092 3.2069 3.9457 3.7172 10.57 2.5245 4.5663-0.82217 9.5707-2.5014 11.121-3.7317 1.9094-1.5154 2.8185-1.4205 2.8185 0.294 0 1.392 1.9975 2.5309 4.4389 2.5309 3.0192 0 4.0238-1.0817 3.141-3.3822-0.71385-1.8602-0.17475-3.3822 1.1982-3.3822 1.3728 0 2.496 1.0147 2.496 2.2548s1.6066 2.2548 3.5701 2.2548c4.355 0 3.1178-5.0122-1.4375-5.8237-20.729-3.6927-20.155-3.7414-20.478 1.7387l-0.30706 5.2124-0.97717-5.0733c-1.0319-5.3575-5.0483-7.0499-5.3512-2.2548-0.1425 2.2548-0.40546 2.2548-1.3153 0-1.4738-3.6526-9.0665-3.6526-10.549 0-0.89173 2.1977-1.6124 2.1504-3.2722-0.21472-1.854-2.642-6.2879-3.176-20.763-2.5008-1.8602 0.08676-7.114-0.30044-11.675-0.86049-4.6998-0.57709-10.931 0.35057-14.382 2.1411-4.9258 2.5555-5.6071 2.5778-3.5645 0.11671 2.804-3.3787 1.2277-6.01-3.6004-6.01-2.1289 0-2.6933 1.4652-1.7316 4.4954 1.0953 3.4509 0.60672 4.1807-2.1029 3.141-1.9413-0.74495-3.5296-2.2606-3.5296-3.368 0-1.1075-3.0797-2.0136-6.8437-2.0136-6.2612 0-6.6273 0.40443-4.3007 4.7517 1.897 3.5446 1.8832 5.4062-0.0543 7.3281-1.9545 1.9388-2.2255 1.5998-1.0951-1.3695 1.7456-4.5851-1.2887-5.2083-5.4886-1.1274-2.34 2.2737-2.7612 1.9469-2.179-1.6911 1.2597-7.8715-6.1169-8.01-7.6208-0.14314-2.1312 11.149 10.983 15.267 21.005 6.5962zm-227.5 2.1533c-1.6277-0.65135-3.5724-0.57124-4.3217 0.17802-0.74925 0.74925 0.58249 1.2822 2.9594 1.1843 2.6267-0.10818 3.161-0.64249 1.3623-1.3623zm17.009-0.02232c-2.1938-0.57169-5.2378-0.53409-6.7644 0.08354-1.5266 0.61764 0.26839 1.0854 3.9888 1.0394 3.7204-0.04595 4.9694-0.5513 2.7756-1.123zm168.35-2.004c0.75277-1.9616 1.3686-7.0644 1.3686-11.339v-7.7728l-29.876 0.62915-29.876 0.62915-0.74118 7.7923c-1.1294 11.874 3.0533 13.628 32.498 13.628 20.952 0 25.491-0.60805 26.627-3.5666zm-66.816-6.58c1.1255-12.961-0.29639-13.458-40.876-14.283-34.366-0.69896-37.17-0.45167-38.343 3.3822-0.69643 2.275-0.86963 6.1656-0.3849 8.6459 0.48474 2.4803 0.95897 5.716 1.0539 7.1905 0.12733 1.9786 10.361 2.5692 39.068 2.2548l38.895-0.42605 0.58742-6.7644zm-59.77-18.405c-1.5502-0.62551-4.0868-0.62551-5.637 0s-0.28185 1.1373 2.8185 1.1373 4.3687-0.51178 2.8185-1.1373zm330.29 205.2c1.5266-0.61764 4.5706-0.65524 6.7644-0.0835 2.1939 0.57169 0.94483 1.077-2.7756 1.123s-5.5154-0.42179-3.9888-1.0394zm-456.56-15.43c-0.02503-4.9606 0.41625-7.2554 0.98061-5.0996s0.58484 6.2144 0.0455 9.0192c-0.53933 2.8048-1.0011 1.041-1.0261-3.9196zm13.603-174.92c-3.2366-1.1357-3.156-1.5263 0.64906-3.1443 6.3459-2.6985 37.857-1.2397 39.823 1.8436 1.4366 2.2526 2.4596 0.81753 2.1761-3.0528-0.04595-0.6274 4.3916-1.2782 9.8613-1.4462 5.4697-0.16803 9.3859 0.59897 8.7027 1.7044-0.68321 1.1055 0.001 2.0099 1.5215 2.0099 1.52 0 2.0674 0.69623 1.2165 1.5472-1.8815 1.8815-58.758 2.3602-63.951 0.53823zm493.72-3.7c3.4104-0.51663 8.991-0.51663 12.401 0 3.4104 0.51663 0.62007 0.93933-6.2007 0.93933s-9.6111-0.4227-6.2007-0.93933zm29.293-2.9705c2.3247-3.7567 2.9726-3.9435 3.5847-1.0337 0.49615 2.3588 2.185 3.0954 5.0278 2.1932 2.3544-0.74726 6.0769-0.31296 8.2721 0.9651 3.1101 1.8106 1.3733 2.3389-7.8654 2.3923-11.356 0.06566-11.737-0.12521-9.0192-4.5169z" fill="#29130c"/>
  <path id="path3417" d="m602.58 227.17c0.55984-0.91143-2.0765-1.0383-5.8586-0.28185l-6.8765 1.3753v-36.359-36.359h15.107c11.562 0 14.486-0.62104 12.461-2.6465-3.1169-3.1168-92.955-5.6448-109.96-3.0942l-10.73 1.6091 1.3704 30.317c0.75371 16.674 0.79779 31.809 0.0979 33.633-1.452 3.7839-14.926 4.3763-28.395 1.2483-4.935-1.1461-7.9228-1.1238-7.195 0.0538 0.68451 1.1076-3.1276 1.9982-8.4714 1.9792-6.5758-0.0234-8.689-0.6847-6.5383-2.0462 1.7478-1.1064 4.7045-1.4258 6.5706-0.7097 1.8661 0.71608 2.816 0.36854 2.1109-0.77231-1.9433-3.1444-78.917-1.2595-96.834 2.3713-3.3311 0.67504-6.6989 0.18805-7.4839-1.0822-0.78497-1.2702-2.3718-1.7258-3.5263-1.0123-1.2173 0.75232-2.099-5.1771-2.099-14.115v-15.413l9.5829 0.87945c5.2706 0.48369 8.8307 0.0965 7.9114-0.86036-3.5748-3.7207 3.0786-6.9599 13.085-6.3704 8.3227 0.49028 10.154-0.0418 9.1494-2.659-0.746-1.9441 0.0883-3.272 2.0559-3.272 1.8213 0 3.3114-0.98281 3.3114-2.184s-1.3911-1.6502-3.0912-0.99782c-4.2611 1.6351-6.7674-5.9643-3.1575-9.5742 1.6149-1.6149 7.2328-3.476 12.484-4.1358 8.732-1.0971 9.5634-0.76373 9.7262 3.9002 0.0978 2.8049 0.68979 3.8315 1.3153 2.2813s3.3865-2.8185 6.1354-2.8185c2.749 0 6.3426-1.2683 7.9858-2.8185 2.397-2.2613 3.213-2.198 4.1277 0.32003 0.72702 2.0013 2.2195 0.5715 4.1189-3.9459 3.0738-7.3103 8.6707-10.167 6.1487-3.1385-0.77874 2.1702-0.67076 3.2779 0.23996 2.4614 0.91071-0.81647 1.9284-2.8458 2.2614-4.5096 2.501-12.493 4.1639-15.482 7.2075-12.956 4.1993 3.4851 3.988 0.97201-0.27694-3.2929-2.1075-2.1075-2.536-3.9332-1.1274-4.8037 1.2497-0.77233 2.2721-0.32969 2.2721 0.98364s1.522 2.3879 3.3822 2.3879 3.3977 1.2683 3.4167 2.8185c0.023 1.8704 0.75297 1.6807 2.1702-0.5637 2.2304-3.5321 3.424-3.8717 20.907-5.9471 5.8907-0.69928 10.71-2.071 10.71-3.0482 0-2.1106 12.575-4.9826 28.185-6.4372 3.6462-0.33976 3.8846-0.81564 1.245-2.4856-2.5601-1.6196-1.9518-2.3948 2.8185-3.5921 3.9256-0.98526 6.0831-3.0395 6.0831-5.7919 0-2.3458 1.522-4.2652 3.3822-4.2652 1.9774 0 3.3822-2.0522 3.3822-4.9406 0-4.8283 0.0753-4.8411 3.3105-0.5637 3.1709 4.1924 3.3135 4.1154 3.3822-1.8238 0.0395-3.4104 1.1463-6.2007 2.4596-6.2007s1.7608 1.0147 0.99432 2.2548c-0.76645 1.2401-0.40356 2.2548 0.80643 2.2548s2.7146-1.2683 3.3436-2.8185c0.86064-2.121 1.7356-1.9815 3.5356 0.5637 1.9257 2.723 2.3987 2.7714 2.4265 0.24858 0.018-1.7235 1.8102-4.4816 3.9804-6.129 3.5723-2.7117 3.3054-3.0294-2.8185-3.3548-3.7204-0.1977-9.3011-0.65363-12.401-1.0132-3.1004-0.35952-43.433-1.4046-89.629-2.3225-46.195-0.91782-83.992-2.3662-83.992-3.2187 0-0.85246 1.9967-3.3569 4.4371-5.5654 3.4197-3.0948 3.9185-4.9844 2.1755-8.2413-2.5862-4.8323-14.651-5.8746-16.289-1.4073-0.82674 2.2548-1.631 2.2548-4.0211 0-1.6432-1.5502-6.0823-2.7384-9.8648-2.6405-3.7824 0.0979-5.6088 0.68979-4.0586 1.3153s2.8185 2.6847 2.8185 4.576c0 2.5421-1.4699 3.0698-5.637 2.0239-4.9915-1.2528-5.641-0.69979-5.6715 4.8289-0.0252 4.5864-0.57402 5.3912-2.0671 3.0321-1.5356-2.4264-2.3067-1.5994-3.1536 3.3822-0.75091 4.4169-0.98796 3.5206-0.71797-2.7149 0.29989-6.9254-0.36393-9.0143-2.5926-8.1591-1.6477 0.63226-4.5106-1.0131-6.362-3.6565-2.4677-3.5232-5.7396-4.806-12.258-4.806-4.8903 0-8.8914-0.95478-8.8914-2.1217 0-3.9503 4.4168-4.8803 12.534-2.6391 6.9041 1.9063 7.6943 1.762 5.4118-0.98823-1.47-1.7713-3.5608-2.6716-4.6462-2.0008-1.0854 0.67083-1.3266-0.46607-0.53597-2.5264 1.3126-3.4205 1.6141-3.4307 3.4684-0.11711 1.117 1.996 3.9148 3.629 6.2174 3.629 3.0764 0 3.8738 1.1958 3.0072 4.5096-0.65933 2.5213-0.0692 4.5096 1.3385 4.5096 1.3848 0 2.5178-1.4154 2.5178-3.1454 0-3.6777 16.039-5.9594 24.856-3.536 6.362 1.7486 30.695-4.7012 27.96-7.4112-0.93877-0.93011 1.2526-1.6198 4.8696-1.5326 4.219 0.10167 5.3641 0.70788 3.1943 1.6911-2.1835 0.98945-3.4512 4.9289-3.5768 11.116l-0.19459 9.5829 13.723 0.27923c7.5479 0.15357 18.543 0.61204 24.434 1.0188 8.1987 0.56613 10.71-0.02809 10.71-2.534-0.00002-1.8005 1.4901-3.2736 3.3114-3.2736 2.0171 0 2.8042 1.322 2.0136 3.3822-1.0911 2.8434 1.764 3.3822 17.921 3.3822 13.321 0 19.536-0.86498 20.253-2.8185 0.82675-2.2548 1.631-2.2548 4.0211 0 3.6194 3.4145 35.908 3.9214 35.908 0.5637 0-1.2401 1.4374-2.2548 3.1943-2.2548 1.7568 0 3.6025-1.2247 4.1015-2.7216 0.64603-1.9381 7.5154-2.561 23.863-2.1639 13.723 0.33334 22.956-0.32276 22.956-1.6312 0-1.2039-2.283-2.6286-5.0733-3.166-3.1406-0.6049-1.852-1.0941 3.3822-1.2842 6.1493-0.22332 8.4555 0.61543 8.4555 3.0751 0 2.7246 3.5075 3.3822 18.038 3.3822 18.368 0 24.945-3.515 9.5829-5.1219l-8.45-0.897 9.58-0.379c9.1546-0.3621 9.598-0.70655 9.9208-7.7072l0.33783-7.3281 0.99302 6.7571c0.54618 3.7164 2.1698 7.5214 3.6081 8.4555 1.9196 1.2468 1.7902 2.2301-0.48665 3.6976-1.9262 1.2415 5.3178 2.0524 19.112 2.1396 23.658 0.14952 25.838-3.1891 2.5387-3.8882-7.6056-0.22821-14.383-0.97029-15.062-1.6491-0.67822-0.67877 7.1518-0.89545 17.4-0.48152 14.798 0.5977 18.395 0.1356 17.477-2.2451-0.63601-1.6487-0.51806-6.9895 0.2621-11.868 1.7176-10.741 8.4099-13.59 17.67-7.5228 5.3413 3.4998 5.8271 4.8783 4.4958 12.758l-1.4926 8.8347 20.525-0.72955c15.848-0.5633 20.523-0.05265 20.519 2.2409-0.005 1.9437-1.5639 2.4757-4.5148 1.5392-2.587-0.82107-4.5096-0.40519-4.5096 0.97546 0 1.3237 1.2683 2.4116 2.8185 2.4175 2.1526 0.0081 2.8666 10.547 3.0219 44.602 0.11184 24.525 0.92702 61.725 1.8114 82.666 1.3702 32.445 1.1428 37.688-1.5383 35.463-1.7304-1.4361-3.6608-2.0966-4.2897-1.4677-1.667 1.667-4.0786-36.367-4.0786-64.323 0-13.264-0.63904-31.626-1.4201-40.804l-1.4201-16.688-9.9933-6.2007c-5.4963-3.4104-10.692-6.2017-11.545-6.2029-1.7133-0.0025-1.1114 39.417 0.88657 58.063 0.97004 9.0532 2.1584 11.846 5.052 11.872 3.0638 0.028 3.185 0.4136 0.63669 2.0272-2.5386 1.6074-2.9204 7.9297-1.9751 32.703 0.64451 16.89 0.32674 31.232-0.70616 31.871-1.951 1.2058-26.868 3.9812-34.758 3.8716-13.292-0.18465-12.401 2.4005-12.401-36.008 0-22.562-0.78327-34.617-2.1598-33.241-1.1879 1.1879-2.2927 17.879-2.4552 37.092l-0.29534 34.932h-18.744c-10.309 0-18.286-0.74571-17.726-1.6572zm-31.67-145.43c-0.74927-0.74925-1.2822 0.58249-1.1843 2.9594 0.10823 2.6267 0.64249 3.161 1.3623 1.3623 0.65134-1.6277 0.57125-3.5725-0.17791-4.3217zm138.44-1.5399c0-7.2488-0.53403-7.7838-9.2355-9.2539-11.926-2.0149-15.789 1.3119-9.7996 8.4388 2.9599 3.522 2.1635 3.1858-2.5442-1.0741-7.5953-6.8728-15.037-8.9017-9.8858-2.6954 3.7765 4.5503 10.086 7.8705 17.52 9.2184 3.2737 0.59363 6.3978 1.525 6.9424 2.0696 3.4943 3.4943 7.0031 0.13572 7.0031-6.7033zm5.0977-6.0848c-1.6772-6.4137-2.847-5.1358-2.8083 3.0681 0.0234 4.9823 0.6568 6.346 1.9784 4.26 1.0692-1.6875 1.4426-4.9851 0.8299-7.3281zm-112.31-6.349c2.4957-4.0382-3.5797-5.0041-36.541-5.8094-31.328-0.76541-38.893 0.3483-38.893 5.726 0 2.554 73.856 2.6357 75.434 0.08338zm54.218-3.3474c2.4803-0.39247-6.8454-0.85177-20.724-1.0207-13.878-0.16888-25.731 0.49778-26.339 1.4815-1.0017 1.6208 36.21 1.2565 47.063-0.46081zm-273.96-8.226c0-1.3133-1.0147-1.7608-2.2548-0.99433-1.2401 0.76645-2.2548 1.841-2.2548 2.3879 0 0.54688 1.0147 0.99433 2.2548 0.99433 1.2402 0 2.2548-1.0745 2.2548-2.3879zm325.82 0.13307c-6.3334-2.7215-25.93-2.7215-25.93 0 0 1.2962 6.4709 2.1874 15.22 2.0963 10.594-0.1103 13.849-0.74746 10.71-2.0963zm-34.949-2.2548c0-1.2401-0.95477-2.2548-2.1217-2.2548-1.167 0-2.7488 1.0147-3.5153 2.2548-0.76646 1.2401 0.18827 2.2548 2.1217 2.2548s3.5153-1.0147 3.5153-2.2548zm1.2312-16.166c-7.9757-1.7827-9.3145-1.1847-10.897 4.8667-0.92591 3.5407 0.14251 4.8469 4.8011 5.8694 3.2956 0.72338 7.0067 1.5761 8.2469 1.895 1.2401 0.3189 2.7838-2.0528 3.4303-5.2705 1.0137-5.045 0.24535-6.0583-5.5813-7.3606zm1.0236-6.5147c0-1.3133-1.0147-1.7608-2.2548-0.99433-1.2401 0.76645-2.2548 1.841-2.2548 2.3879 0 0.54688 1.0147 0.99433 2.2548 0.99433s2.2548-1.0745 2.2548-2.3879zm-113.86 193.72c-9.9212-1.09-19.814-1.5573-21.984-1.0386-3.6322 0.86818-3.9459-1.9086-3.9459-34.923v-35.866h24.803 24.803v37.204c0 28.42-0.66546 37.133-2.8185 36.904-1.5502-0.16496-10.936-1.1917-20.857-2.2817zm-53.123-10.384c-0.0742-5.8907-0.32794-22.124-0.5637-36.075l-0.42866-25.364 11.838-0.002 11.838-0.002 0.34927 21.984c0.19211 12.091 0.63121 28.326 0.97581 36.077l0.62652 14.093h-12.25-12.25l-0.13504-10.71zm-392.21-12.72c0-10.304 0.65622-26.497 1.4583-35.986l1.4583-17.251h24.766 24.766l-1.3499 20.857c-0.74247 11.471-1.3822 27.258-1.4218 35.083-0.0449 8.8931-0.91702 13.703-2.3266 12.832-1.2401-0.76645-3.2138-0.80084-4.3859-0.0764-1.1721 0.7244-11.319 1.7579-22.548 2.2966l-20.417 0.97946v-18.734zm18.038-24.676c0-1.6535 1.4252-3.0064 3.1672-3.0064s2.6437 1.3644 2.0038 3.032c-1.4342 3.7374 4.5224 1.8666 13.216-4.1505 7.4832-5.1796 10.181-5.3239 6.1287-0.32766-1.702 2.0983-1.9129 3.1066-0.46867 2.2408 1.4442-0.86586 3.1398-0.29963 3.7679 1.2583 1.0176 2.5241 1.3798-0.58409 2.2319-19.152 0.2058-4.4845-0.80467-5.0457-8.7061-4.8351-4.9164 0.13101-11.476 0.97349-14.576 1.8722-3.1004 0.89868-6.949 1.7216-8.5526 1.8287-1.6035 0.1071-2.4286 1.4636-1.8335 3.0145 0.59513 1.5509-0.37587 3.3793-2.1578 4.063-3.58 1.3738-4.459 5.8944-1.1461 5.8944 3.3598 0 9.3426-6.9325 7.9405-9.201-0.70465-1.1402-0.20665-2.073 1.1067-2.073 3.8766 0 2.7377 5.5386-2.2368 10.878-2.7088 2.9076-3.9126 6.1195-2.9057 7.7533 0.94541 1.5341-1.0322 0.99027-4.3946-1.2086-5.0168-3.2807-6.1135-3.41-6.1135-0.72053 0 2.8268 1.9645 3.746 11.838 5.5388 0.93011 0.16888 1.6911-1.0458 1.6911-2.6994zm9.463-12.777c-0.28349-3.7204 0.51535-6.7644 1.7752-6.7644s2.2906 2.5965 2.2906 5.7701c0 3.2726 0.97598 5.1669 2.2548 4.3765 1.2401-0.76645 2.2548-0.319 2.2548 0.99433s-1.8135 2.3879-4.03 2.3879c-2.86 0-4.1796-1.9638-4.5454-6.7644zm-18.29-3.2632c1.1342 0.70098 2.0622 0.11542 2.0622-1.3013 0-3.0099-5.1982-1.7999-5.684 1.3232-0.18085 1.1626 0.0961 1.3466 0.61536 0.40872 0.51931-0.93783 1.8722-1.1316 3.0064-0.43062zm45.689 49.433c0.80828-5.897 1.4696-22.249 1.4696-36.337v-25.616h24.862 24.862l-0.62243 34.017-0.62243 34.017-21.233 0.90014c-11.678 0.49507-23.247 1.5394-25.709 2.3206-4.1634 1.3214-4.373 0.67272-3.0059-9.3014zm47.158-38.832c-1.1861-0.39537-1.7626-4.6588-1.281-9.4744 0.48155-4.8156-0.16963-9.4015-1.4471-10.191-1.3865-0.85691-1.7774-0.0149-0.97 2.0894 0.98221 2.5596 0.35764 3.1431-2.2806 2.1307-2.0342-0.78061-3.6333-0.26078-3.6333 1.1812 0 1.8767-1.2235 1.9206-4.5096 0.1619-4.8713-2.607-5.2316-1.802-2.9726 6.6437 1.3665 5.1089 1.6022 5.1922 3.1929 1.1274 1.4623-3.7366 1.7411-3.484 1.876 1.6998 0.18832 7.2351 6.4916 11.732 11.092 7.9143 1.6993-1.4103 2.1192-2.8876 0.93304-3.283zm-37.124-6.7778c-2.3174-2.8082-2.3402-3.746-0.10949-4.4968 4.28-1.4405 3.3672-4.7639-1.1274-4.1046-2.5588 0.37535-3.982 2.6298-4.0486 6.413-0.0565 3.2088 0.70454 5.3353 1.6911 4.7256 0.98656-0.60973 1.7938 0.0258 1.7938 1.4124 0 1.3865 1.0639 1.8634 2.3643 1.0597 1.5888-0.98192 1.4039-2.625-0.5637-5.0094zm16.238-0.55998c0-1.2401-1.0745-2.2548-2.3879-2.2548-1.3133 0-1.7608 1.0147-0.99433 2.2548 0.76645 1.2401 1.841 2.2548 2.3879 2.2548 0.54689 0 0.99433-1.0147 0.99433-2.2548zm30.3 53.89c-0.80319-1.2996-1.1004-17.503-0.66039-36.007l0.79994-33.645 14.656-0.2855 14.656-0.28551-13.529-2.0491c-7.4409-1.127-39.187-1.7643-70.548-1.4162-47.752 0.53009-57.366 1.1827-59.154 4.0152-1.1744 1.8602-2.1509 18.348-2.1699 36.641l-0.0345 33.258h-24.803-24.803l0.02052-28.749c0.01127-15.812 1.0279-47.907 2.2592-71.322l2.239-42.557 10.102-9.408c5.5562-5.1741 10.445-8.3776 10.865-7.1188 0.47792 1.4338 19.235 2.4875 50.21 2.8208 27.196 0.29258 71.008 1.1165 97.361 1.831 29.889 0.81029 47.915 0.48771 47.915-0.85746 0-4.0941 8.9267-5.0357 14.007-1.4774 2.7692 1.9397 8.3604 3.5266 12.425 3.5266 6.9695 0 7.3901 0.4579 7.3901 8.0454v8.0454l-7.3281-5.1137c-4.0305-2.8125-8.1326-6.4205-9.1158-8.0177-2.8382-4.6105-9.4464-7.3291-12.791-5.2621-3.5385 2.1869 3.62 9.3911 19.648 19.773l9.5789 6.2049 0.005 65.623 0.005 65.623-10.71-2.7484c-6.5731-1.6867-15.368-2.1399-22.768-1.1732l-12.058 1.5752 1.6204-34.573c1.4539-31.043 1.2462-34.573-2.036-34.573-3.2128 0-3.6554 4.215-3.6554 34.811v34.811l-9.5829 0.96517c-17.771 1.7898-28.547 1.4614-30.016-0.91465zm-157.8-51.47c0.71349-1.1544 0.37236-2.6706-0.75806-3.3693-1.1304-0.69864-2.6371 0.24591-3.3482 2.099-1.4018 3.653 1.9859 4.701 4.1063 1.2702zm167.32-3.8122c1.3142 2.3295 2.9034 3.3442 3.5316 2.2548 0.62819-1.0894-1.2607-4.2994-4.1976-7.1335l-5.3398-5.1529 0.2248 8.5351c0.19211 7.2952 0.45477 7.7162 1.8082 2.898 1.4772-5.2588 1.7437-5.3529 3.9728-1.4016zm77.35-36.366c-0.0618-28.616-0.50201-32.691-3.1545-29.193-2.2484 2.9651-3.346 3.2757-4.0554 1.1475-0.7451-2.2353-1.8281-2.0624-4.63 0.73946-2.0115 2.0115-3.1222 4.1925-2.4681 4.8466 0.65407 0.65407 1.5015 3.0579 1.8833 5.3417 0.38171 2.2839 1.8276 3.8989 3.213 3.5888 2.3066-0.51616 3.7534 9.2381 2.5785 17.385-0.53328 3.698 4.612 29.403 5.8856 29.403 0.45062 0 0.78704-14.966 0.7476-33.258zm-58.374-19.84c1.1415-0.7055 2.0755-0.14829 2.0755 1.2382s1.0312 1.8836 2.2916 1.1047c1.2604-0.77895 1.5729-2.6145 0.69458-4.079-1.179-1.9658-0.74605-2.0294 1.6543-0.24312 3.7018 2.7548 14.033 3.8135 12.465 1.2775-0.56665-0.91688 1.0131-2.9432 3.5106-4.5029 3.9496-2.4666 4.6989-2.2317 5.7541 1.8035 0.66728 2.5516 2.6169 4.6394 4.3324 4.6394 3.8775 0 3.9996-2.6763 0.30072-6.5895-2.3296-2.4645-1.8407-2.5165 2.8185-0.29963l5.637 2.6821-5.4667-4.4037c-3.0067-2.422-7.0653-4.0898-9.0192-3.7061s-4.3734 0.77527-5.3767 0.87015-1.1971 1.1872-0.43062 2.4273c0.76645 1.2401 0.31901 2.2548-0.99432 2.2548s-2.3879-1.4495-2.3879-3.2211-1.6694-4.8906-3.7099-6.931c-2.9966-2.9966-4.0738-3.1359-5.6025-0.72476-1.428 2.2523-1.9011 2.2932-1.9272 0.16661-0.018-1.5502-1.6164-2.8185-3.5498-2.8185s-2.8882 1.0147-2.1217 2.2548c1.8274 2.9567-4.7366 2.8953-10.327-0.09655-2.4165-1.2932-4.2589-1.5469-4.0944-0.5637 0.83013 4.9598-0.6733 5.472-4.8821 1.6631-3.7045-3.3525-5.0214-3.6004-6.4915-1.2217-1.1676 1.8892-2.1512 2.0955-2.6809 0.56241-0.46016-1.3319-5.149-2.9594-10.42-3.6167-8.7341-1.0892-9.6028-0.74753-9.8077 3.8575-0.21465 4.8253-0.30596 4.7991-2.03-0.5844-1.5335-4.7885-1.863-4.9582-2.1885-1.1274-0.37221 4.3798-0.43223 4.3845-2.0853 0.16487-1.5794-4.0318-1.8116-4.0591-3.2237-0.37929-2.9786 7.7622-1.7319 13.904 2.8224 13.904 2.3892 0 3.8514-0.79724 3.2491-1.7716-0.60222-0.97441-0.0204-1.7716 1.2929-1.7716s2.3879 1.522 2.3879 3.3822 1.522 3.3822 3.3822 3.3822 3.3822 0.9726 3.3822 2.1613c0 2.2482 36.955 1.2104 40.766-1.1448zm11.095-3.1383c0-1.3133 1.0147-2.3879 2.2548-2.3879s2.2548 0.44745 2.2548 0.99433c0 0.54689-1.0147 1.6214-2.2548 2.3879-1.2401 0.76645-2.2548 0.319-2.2548-0.99433zm-173.86-11.966c0.12362-3.4104-0.65734-6.2007-1.7355-6.2007-1.0781 0-1.9852 5.327-2.0157 11.838-0.04226 9.0227 0.37043 10.497 1.7355 6.2007 0.985-3.1004 1.8921-8.4273 2.0157-11.838zm4.7344-13.231c0-1.2401-1.0147-1.6277-2.2548-0.86126-1.2401 0.76645-2.2548 2.4082-2.2548 3.6484 0 1.2401 1.0147 1.6277 2.2548 0.86126 1.2401-0.76645 2.2548-2.4082 2.2548-3.6484zm227.73 101.36c0-22.529 0.61885-40.343 1.3752-39.587 0.75637 0.75637 1.3118 9.8038 1.2342 20.105-0.0776 10.302 0.44683 20.695 1.1653 23.098 1.2744 4.2606 1.3821 4.2639 4.4028 0.13274 2.708-3.7034 3.0965-1.6346 3.0965 16.49 0 20.603-0.0331 20.724-5.637 20.724h-5.637v-40.962zm46.224-4.1338c0.76646-1.2401 2.4082-2.2548 3.6484-2.2548 1.2401 0 1.6277 1.0147 0.86126 2.2548-0.76645 1.2401-2.4082 2.2548-3.6483 2.2548s-1.6277-1.0147-0.86127-2.2548zm-36.59-20.293c0-5.5806 0.43973-7.8636 0.97717-5.0733 0.53745 2.7903 0.53745 7.3563 0 10.147-0.53744 2.7903-0.97717 0.50733-0.97717-5.0733zm-3.7731-26.658c3.5973-10.073 3.9217-14.666 0.90416-12.801-1.2402 0.76645-2.2548 4.4375-2.2548 8.158 0 4.0508-0.92828 6.1907-2.314 5.3343-1.2727-0.78657-2.3216-4.6514-2.3309-8.5886-0.0611-25.903-0.51069-29.682-3.818-32.1-2.7959-2.0444-2.9058-2.9188-0.54952-4.3751 1.9464-1.2029 2.3993-0.9374 1.3359 0.78322-0.93396 1.5112-0.23544 2.6032 1.6652 2.6032 1.8007 0 3.9624-1.7757 4.8037-3.9459 1.4256-3.6773 1.7489-3.648 4.7509 0.43096 2.3136 3.1437 3.2212 11.108 3.2212 28.269 0 21.663-0.39072 23.922-4.1874 24.208-3.8687 0.29142-3.962-0.31558-1.2264-7.9757zm0.90416-31.967c0-1.2401-1.0147-2.2548-2.2548-2.2548s-2.2548 1.0147-2.2548 2.2548 1.0147 2.2548 2.2548 2.2548 2.2548-1.0147 2.2548-2.2548zm-292.55 14.647c-0.02503-4.9606 0.41625-7.2554 0.98061-5.0996s0.58484 6.2144 0.0455 9.0192c-0.53933 2.8048-1.0011 1.041-1.0261-3.9196zm306.08-40.583c0-5.0733 0.90192-5.637 9.0192-5.637 10.674 0 11.598 3.0601 2.3668 7.8339-9.1977 4.7563-11.386 4.3341-11.386-2.1969zm-306.47-2.067c-0.0979-2.3769 0.43502-3.7087 1.1843-2.9594 0.74925 0.74925 0.82936 2.694 0.17802 4.3217-0.71979 1.7987-1.2541 1.2644-1.3623-1.3623zm24.625-5.5588c0-1.2401 1.0147-2.8819 2.2548-3.6484 1.2401-0.76645 2.2548-0.37888 2.2548 0.86126s-1.0147 2.8819-2.2548 3.6484c-1.2401 0.76645-2.2548 0.37888-2.2548-0.86126zm330.84-4.212c-3.3032-3.6518-3.1611-3.9701 1.9053-4.2711 3.011-0.17885 5.4746 0.58215 5.4746 1.6911s-1.0746 2.0163-2.3879 2.0163-1.7608 1.0147-0.99432 2.2548c2.223 3.5969-0.10553 2.6119-3.9977-1.6911zm112.75 0.21209c1.5266-0.61764 4.5706-0.65524 6.7644-0.08354 2.1939 0.57169 0.94484 1.077-2.7756 1.123-3.7204 0.04595-5.5154-0.4218-3.9888-1.0394zm-466.92-4.086c-0.69859-1.8205-0.29982-3.9097 0.88616-4.6427 1.186-0.73298 2.1563 0.17479 2.1563 2.0173s1.7757 3.814 3.9459 4.3811c3.1125 0.81338 2.9253 1.0864-0.88616 1.2927-2.6576 0.14386-5.4036-1.2279-6.1022-3.0484zm143.62-0.169c-1.7684-4.6084-1.1809-4.8037 9.3686-3.1144l9.0192 1.4443-9.0192 0.3545c-6.7243 0.2643-8.1586 0.91065-5.637 2.5402 2.365 1.5284 2.5132 2.1961 0.49294 2.2203-1.5891 0.01894-3.4901-1.5312-4.2245-3.4449zm34.171-0.8735-15.784-1.3018 14.226-1.2721c16.276-1.4554 28.014-0.25943 26.204 2.6698-0.68061 1.1012-2.9532 1.8231-5.0503 1.6041-2.0971-0.21899-10.915-0.98398-19.596-1.7zm47.351-0.15666c-3.4797-1.4953-2.2906-1.974 5.2064-2.0963 5.9381-0.09687 9.1741 0.71827 8.3224 2.0963-1.6572 2.6815-7.2887 2.6815-13.529 0zm167.01 0.24237c-0.68821-1.1135 0.2743-2.6101 2.1389-3.3256 1.8646-0.71551 3.1271-2.4707 2.8056-3.9003-0.32156-1.4297 0.43004-2.8108 1.6702-3.0691 1.2401-0.25836 1.4515-0.03285 0.46958 0.50112-0.98185 0.53398-0.66268 2.3234 0.7093 3.9766 1.9021 2.2919 1.4214 3.58-2.0238 5.4238-2.5859 1.3839-5.0535 1.5522-5.7697 0.39352zm92.916 0.22759c-3.096-0.62011-3.3286-1.3806-1.1393-3.7243 1.5131-1.6198 3.9657-2.479 5.4501-1.9093 1.8025 0.69169 2.9821-2.5853 3.5513-9.8654l0.85232-10.901 0.40643 11.672c0.31625 9.0827 1.2819 11.863 4.3523 12.53 2.4474 0.532 1.377 1.2601-2.8185 1.9173-3.7204 0.58278-8.5151 0.70894-10.655 0.28037zm200.15-0.31416c-0.71351-1.1545-0.26604-2.7363 0.99433-3.5153 1.2604-0.77895 2.2916 0.16559 2.2916 2.099 0 3.9606-1.353 4.5438-3.2859 1.4163zm-647.23-2.503c-5.9327-1.4279-5.4475-1.6609 3.9459-1.8949 5.8907-0.14672 10.71 0.53196 10.71 1.5082 0 2.2874-6.0916 2.4481-14.656 0.38668zm67.08 0.79366c2.1702-0.56714 5.7216-0.56714 7.8918 0 2.1702 0.56715 0.39459 1.0312-3.9459 1.0312s-6.1162-0.46403-3.9459-1.0312zm348.43-0.09959c5.3034-0.47632 13.421-0.46962 18.038 0.01488 4.6178 0.48451 0.27863 0.87422-9.6425 0.86603-9.9211-0.0081-13.699-0.4046-8.3959-0.88092zm-261.06-4.798c0-1.0682 2.5367-1.4572 5.637-0.86454 3.1004 0.59267 5.637 1.4666 5.637 1.9421s-2.5367 0.86454-5.637 0.86454c-3.1004 0-5.637-0.87396-5.637-1.9421zm14.14 0.57985c0.74928-0.74925 2.694-0.82936 4.3217-0.17802 1.7987 0.71979 1.2644 1.2541-1.3623 1.3623-2.3769 0.0979-3.7087-0.43502-2.9594-1.1843zm16.814-0.26509c4.0028-0.49811 11.105-0.5063 15.784-0.01826 4.6782 0.48811 1.4032 0.89566-7.2778 0.90566-8.681 0.0099-12.509-0.38936-8.5058-0.88747zm-73.231-2.2848c5.8907-0.46449 15.53-0.46449 21.421 0 5.8907 0.46448 1.071 0.84452-10.71 0.84452s-16.601-0.38004-10.71-0.84452zm142.76-1.2584c0.84675-2.2237 2.1075-3.4752 2.8018-2.7809 0.69423 0.69423 0.001 2.5136-1.5395 4.0432-2.2269 2.2103-2.4859 1.9513-1.2622-1.2622zm62.99 0.45619c-4.2889-2.0377-4.2695-2.0976 0.395-1.2241 3.4768 0.65109 4.5553 0.0081 3.7047-2.2085-0.65996-1.7198-0.0767-3.127 1.2961-3.127s2.496 1.4374 2.496 3.1943 1.2683 3.7061 2.8185 4.3316c1.5502 0.62551 0.78918 1.1461-1.6911 1.1568-2.4803 0.01082-6.5389-0.94464-9.0192-2.1231zm-289.12-1.158c0.74925-0.74925 2.694-0.82936 4.3217-0.17802 1.7987 0.71979 1.2644 1.2541-1.3623 1.3623-2.3769 0.0979-3.7087-0.43502-2.9594-1.1843zm-75.587-2.386c1.5502-0.62551 4.0868-0.62551 5.637 0s0.28185 1.1373-2.8185 1.1373-4.3687-0.51178-2.8185-1.1373zm325.43-3.9558c-0.0978-2.3769 0.435-3.7087 1.1843-2.9594 0.74925 0.74925 0.82934 2.694 0.17791 4.3217-0.71978 1.7987-1.2541 1.2644-1.3623-1.3623zm-133.03-2.254c-0.0979-2.3769 0.43502-3.7087 1.1843-2.9594 0.74925 0.74925 0.82936 2.694 0.17802 4.3217-0.7198 1.7987-1.2541 1.2644-1.3623-1.3623zm4.7712-2.4427c-0.046-3.7204 0.42178-5.5154 1.0394-3.9888 0.61763 1.5266 0.65522 4.5706 0.0834 6.7644-0.57157 2.1939-1.0769 0.94484-1.1229-2.7756zm191.48 3.0064c-0.14386-2.0669-1.5299-4.2698-3.0801-4.8953-1.5502-0.62551 3.0158-1.2174 10.147-1.3153 7.1308-0.0979 13.642-0.43168 14.468-0.74171 0.82675-0.31004 1.8981 0.62107 2.3808 2.0691 0.62212 1.8663-2.3837 2.3097-10.325 1.5229-9.4964-0.9409-11.364-0.48342-12.266 3.0042-0.88824 3.4359-1.1067 3.4946-1.3251 0.35609zm-128.6-2.818c-0.0979-2.3769 0.435-3.7087 1.1843-2.9594 0.74925 0.74925 0.82934 2.694 0.17791 4.3217-0.71978 1.7987-1.2541 1.2644-1.3623-1.3623zm104.8-2.5144c-2.4073-1.8208-3.4219-3.2782-2.2548-3.2388 1.1671 0.03944 4.0917 1.5614 6.4989 3.3822 2.4073 1.8208 3.4219 3.2782 2.2548 3.2388-1.1671-0.03944-4.0917-1.5614-6.4989-3.3822zm320.07 1.2359c-0.77895-1.2604 0.16559-2.2916 2.099-2.2916 3.9606 0 4.5438 1.353 1.4163 3.2859-1.1545 0.71349-2.7364 0.26604-3.5153-0.99433zm-167.47-1.587c2.1558-0.56436 6.2144-0.58484 9.0192-0.0455 2.8048 0.53933 1.041 1.0011-3.9196 1.0261-4.9606 0.02503-7.2554-0.41625-5.0996-0.98061zm23.364-0.17639c1.3642-0.91112 3.0598-3.1786 3.7679-5.0388 0.97985-2.5741 1.33-2.3766 1.4655 0.82668 0.12605 2.9828 1.419 3.8844 4.438 3.0949 2.343-0.61271 5.6407-0.23926 7.3281 0.8299 1.9549 1.2386-1.0226 1.9439-8.2059 1.9439-6.2007 0-10.158-0.74546-8.7936-1.6566zm56.64 0.07797c5.2332-0.47289 14.365-0.47851 20.293-0.0124 5.9281 0.46602 1.6464 0.85292-9.5149 0.8598-11.161 0.0068-16.012-0.37442-10.778-0.8473zm-271.58-1.969c0.74925-0.74925 2.694-0.82936 4.3217-0.17802 1.7987 0.71979 1.2644 1.2541-1.3623 1.3623-2.3769 0.0979-3.7087-0.43502-2.9594-1.1843zm122.76-0.2972c6.4655-0.45391 17.627-0.45807 24.803-0.0092 7.1761 0.44882 1.8862 0.8202-11.755 0.82528-13.642 0.0052-19.513-0.36213-13.047-0.81603zm-136.29-1.958c0.74925-0.74925 2.694-0.82936 4.3217-0.17802 1.7987 0.71979 1.2644 1.2541-1.3623 1.3623-2.3769 0.0979-3.7087-0.43502-2.9594-1.1843zm-77.888-2.5199c4.0028-0.49811 11.105-0.5063 15.784-0.0182 4.6782 0.48811 1.4032 0.89566-7.2778 0.90566-8.681 0.01001-12.509-0.38936-8.5058-0.88747zm-121.14-1.492c0-1.954 11.202-2.8249 13.947-1.0842 1.8895 1.1982-0.10144 1.8923-5.4912 1.9143-4.6505 0.01899-8.4555-0.35452-8.4555-0.83002zm43.405-0.68975c2.1702-0.56715 5.7216-0.56715 7.8918 0 2.1702 0.56714 0.39459 1.0312-3.9459 1.0312s-6.1162-0.46403-3.9459-1.0312zm16.911 0.06098c1.5502-0.62551 4.0868-0.62551 5.637 0s0.28185 1.1373-2.8185 1.1373-4.3687-0.51178-2.8185-1.1373z" fill="#100b0b"/>
 </g>
</svg>
